<mxfile host="app.diagrams.net" modified="2020-09-22T11:37:50.665Z" agent="5.0 (Windows NT 6.1; Win64; x64) AppleWebKit/537.36 (KHTML, like Gecko) Chrome/85.0.4183.83 Safari/537.36" etag="UKu7QlHrvpW0PbW2cdFF" version="13.7.3" type="github">
  <diagram id="d2qG-TDC_SWn2ggN0VM3" name="Page-1">
    <mxGraphModel dx="1422" dy="744" grid="1" gridSize="10" guides="1" tooltips="1" connect="1" arrows="1" fold="1" page="1" pageScale="1" pageWidth="827" pageHeight="1169" math="0" shadow="0">
      <root>
        <mxCell id="0" />
        <mxCell id="1" parent="0" />
        <mxCell id="ihpu-LocPchT_FrUayzq-43" style="edgeStyle=orthogonalEdgeStyle;rounded=0;orthogonalLoop=1;jettySize=auto;html=1;entryX=0.658;entryY=0.3;entryDx=0;entryDy=0;entryPerimeter=0;endArrow=none;endFill=0;strokeColor=#000000;" edge="1" parent="1" source="ihpu-LocPchT_FrUayzq-41" target="ihpu-LocPchT_FrUayzq-37">
          <mxGeometry relative="1" as="geometry" />
        </mxCell>
        <mxCell id="ihpu-LocPchT_FrUayzq-41" value="控制中心" style="rounded=0;whiteSpace=wrap;html=1;strokeWidth=1;dashed=1;labelPosition=center;verticalLabelPosition=bottom;align=center;verticalAlign=top;" vertex="1" parent="1">
          <mxGeometry x="423.5" y="308" width="186.5" height="198" as="geometry" />
        </mxCell>
        <mxCell id="ihpu-LocPchT_FrUayzq-40" value="其它输入源" style="rounded=0;whiteSpace=wrap;html=1;strokeWidth=1;dashed=1;labelPosition=center;verticalLabelPosition=bottom;align=center;verticalAlign=top;" vertex="1" parent="1">
          <mxGeometry x="494.5" y="71" width="145.5" height="109" as="geometry" />
        </mxCell>
        <mxCell id="ihpu-LocPchT_FrUayzq-39" value="前端子系统" style="rounded=0;whiteSpace=wrap;html=1;strokeWidth=1;dashed=1;labelPosition=center;verticalLabelPosition=bottom;align=center;verticalAlign=top;" vertex="1" parent="1">
          <mxGeometry x="40" y="309" width="350" height="180" as="geometry" />
        </mxCell>
        <mxCell id="ihpu-LocPchT_FrUayzq-1" style="edgeStyle=orthogonalEdgeStyle;rounded=0;orthogonalLoop=1;jettySize=auto;html=1;entryX=0;entryY=0.5;entryDx=0;entryDy=0;endArrow=none;endFill=0;dashed=1;" edge="1" parent="1" source="ihpu-LocPchT_FrUayzq-36" target="ihpu-LocPchT_FrUayzq-6">
          <mxGeometry relative="1" as="geometry">
            <mxPoint x="280" y="110" as="sourcePoint" />
          </mxGeometry>
        </mxCell>
        <mxCell id="ihpu-LocPchT_FrUayzq-3" value="显示主机" style="shape=image;html=1;verticalAlign=top;verticalLabelPosition=bottom;labelBackgroundColor=#ffffff;imageAspect=0;aspect=fixed;image=https://cdn4.iconfinder.com/data/icons/desktop-app-free/32/Desktop_Desktop_App_PC_Monitor_CPU-128.png" vertex="1" parent="1">
          <mxGeometry x="540" y="70" width="80" height="80" as="geometry" />
        </mxCell>
        <mxCell id="ihpu-LocPchT_FrUayzq-4" style="edgeStyle=orthogonalEdgeStyle;rounded=0;orthogonalLoop=1;jettySize=auto;html=1;entryX=0;entryY=0.5;entryDx=0;entryDy=0;dashed=1;endArrow=none;endFill=0;" edge="1" parent="1" source="ihpu-LocPchT_FrUayzq-6" target="ihpu-LocPchT_FrUayzq-3">
          <mxGeometry relative="1" as="geometry" />
        </mxCell>
        <mxCell id="ihpu-LocPchT_FrUayzq-38" style="edgeStyle=orthogonalEdgeStyle;rounded=0;orthogonalLoop=1;jettySize=auto;html=1;entryX=0.5;entryY=0.4;entryDx=0;entryDy=0;entryPerimeter=0;endArrow=none;endFill=0;strokeColor=#0000CC;" edge="1" parent="1" source="ihpu-LocPchT_FrUayzq-6" target="ihpu-LocPchT_FrUayzq-37">
          <mxGeometry relative="1" as="geometry" />
        </mxCell>
        <mxCell id="ihpu-LocPchT_FrUayzq-6" value="视频综合管理&lt;br&gt;一体机" style="image;html=1;image=img/lib/clip_art/computers/Server_Tower_128x128.png;verticalAlign=bottom;labelPosition=center;verticalLabelPosition=top;align=center;" vertex="1" parent="1">
          <mxGeometry x="370" y="70" width="60" height="80" as="geometry" />
        </mxCell>
        <mxCell id="ihpu-LocPchT_FrUayzq-10" value="客户端" style="shadow=0;dashed=0;html=1;strokeColor=none;fillColor=#4495D1;labelPosition=center;verticalLabelPosition=top;verticalAlign=bottom;align=center;outlineConnect=0;shape=mxgraph.veeam.one_client;" vertex="1" parent="1">
          <mxGeometry x="469" y="363" width="70" height="50" as="geometry" />
        </mxCell>
        <mxCell id="ihpu-LocPchT_FrUayzq-12" value="控制键盘" style="verticalLabelPosition=top;verticalAlign=bottom;html=1;shadow=0;dashed=0;strokeWidth=1;shape=mxgraph.android.keyboard;labelPosition=center;align=center;" vertex="1" parent="1">
          <mxGeometry x="449" y="447.79999999999995" width="120" height="45.2" as="geometry" />
        </mxCell>
        <mxCell id="ihpu-LocPchT_FrUayzq-42" style="edgeStyle=orthogonalEdgeStyle;rounded=0;orthogonalLoop=1;jettySize=auto;html=1;entryX=0.926;entryY=0.7;entryDx=0;entryDy=0;entryPerimeter=0;endArrow=none;endFill=0;" edge="1" parent="1" source="ihpu-LocPchT_FrUayzq-18" target="ihpu-LocPchT_FrUayzq-37">
          <mxGeometry relative="1" as="geometry" />
        </mxCell>
        <mxCell id="ihpu-LocPchT_FrUayzq-18" value="存储设备" style="verticalAlign=top;verticalLabelPosition=bottom;labelPosition=center;align=center;html=1;outlineConnect=0;gradientDirection=north;strokeWidth=2;shape=mxgraph.networks.server_storage;strokeColor=#036897;fillColor=#036897;" vertex="1" parent="1">
          <mxGeometry x="685.43" y="353" width="60" height="70" as="geometry" />
        </mxCell>
        <mxCell id="ihpu-LocPchT_FrUayzq-20" value="视频线" style="line;strokeWidth=1;html=1;dashed=1;fillColor=#036897;gradientColor=none;fontColor=#000000;labelPosition=right;verticalLabelPosition=middle;align=left;verticalAlign=middle;" vertex="1" parent="1">
          <mxGeometry x="674.4300000000001" y="31" width="70" height="10" as="geometry" />
        </mxCell>
        <mxCell id="ihpu-LocPchT_FrUayzq-21" value="光纤" style="line;strokeWidth=1;html=1;fillColor=#036897;gradientColor=none;fontColor=#000000;labelPosition=right;verticalLabelPosition=middle;align=left;verticalAlign=middle;strokeColor=#0000CC;" vertex="1" parent="1">
          <mxGeometry x="674" y="61" width="70" height="10" as="geometry" />
        </mxCell>
        <mxCell id="ihpu-LocPchT_FrUayzq-22" value="网络" style="line;strokeWidth=1;html=1;fillColor=#036897;gradientColor=none;fontColor=#000000;labelPosition=right;verticalLabelPosition=middle;align=left;verticalAlign=middle;" vertex="1" parent="1">
          <mxGeometry x="674.4300000000001" y="91" width="70" height="10" as="geometry" />
        </mxCell>
        <mxCell id="ihpu-LocPchT_FrUayzq-44" style="edgeStyle=orthogonalEdgeStyle;rounded=0;orthogonalLoop=1;jettySize=auto;html=1;entryX=0.25;entryY=0.5;entryDx=0;entryDy=0;entryPerimeter=0;endArrow=none;endFill=0;exitX=0.5;exitY=0.113;exitDx=0;exitDy=0;exitPerimeter=0;strokeColor=#0000CC;" edge="1" parent="1" source="ihpu-LocPchT_FrUayzq-28" target="ihpu-LocPchT_FrUayzq-37">
          <mxGeometry relative="1" as="geometry" />
        </mxCell>
        <mxCell id="ihpu-LocPchT_FrUayzq-28" value="" style="ellipse;shape=cloud;whiteSpace=wrap;html=1;strokeWidth=1;gradientColor=none;fontColor=#000000;fillColor=none;" vertex="1" parent="1">
          <mxGeometry x="35" y="321" width="360" height="160" as="geometry" />
        </mxCell>
        <mxCell id="ihpu-LocPchT_FrUayzq-26" value="高清网络球机" style="image;html=1;image=img/lib/clip_art/networking/Ip_Camera_128x128.png;strokeColor=#616161;gradientColor=none;" vertex="1" parent="1">
          <mxGeometry x="129" y="354" width="61" height="70" as="geometry" />
        </mxCell>
        <mxCell id="ihpu-LocPchT_FrUayzq-27" value="高清网络枪机" style="points=[];aspect=fixed;html=1;align=center;shadow=0;dashed=0;image;image=img/lib/allied_telesis/security/POE_DVS_Camera.svg;strokeColor=#616161;gradientColor=none;" vertex="1" parent="1">
          <mxGeometry x="230" y="364" width="63.43" height="50" as="geometry" />
        </mxCell>
        <mxCell id="ihpu-LocPchT_FrUayzq-36" value="显示大屏" style="shape=image;imageAspect=0;aspect=fixed;verticalLabelPosition=bottom;verticalAlign=top;image=data:image/jpeg,/9j/4AAQSkZJRgABAQEAYABgAAD/2wBDAAwICQoJBwwKCQoNDAwOER0TERAQESMZGxUdKiUsKyklKCguNEI4LjE/MigoOk46P0RHSktKLTdRV1FIVkJJSkf/2wBDAQwNDREPESITEyJHMCgwR0dHR0dHR0dHR0dHR0dHR0dHR0dHR0dHR0dHR0dHR0dHR0dHR0dHR0dHR0dHR0dHR0f/wAARCAKxA+QDASIAAhEBAxEB/8QAHAABAAEFAQEAAAAAAAAAAAAAAAIBAwQFBgcI/8QAWRAAAQMCAwQFBwYJCAcIAgIDAQACAwQRBRIhBjFBURMUYXGRFyJSVIGhsQcVMpPR0hYjNlV0krLB4SQzNUJicnPwJSY0RVNWgkNEY2R1g5SiwvFGhGWj4v/EABoBAQADAQEBAAAAAAAAAAAAAAABAgMEBQb/xAAqEQEBAAICAQQDAQEAAgIDAAAAAQIRAxIhBBMxURQiQTJhBYEVQiNScf/aAAwDAQACEQMRAD8A9VREQEREBERAREQEREBERAREQEREBERAREQEREBERAREQEREBERAREQEREBERAREQEREBERAREQEREBERAREQEREBERAREQEREBERAREQEREBERAREQEREBERAREQEREBERAREQEREBERAREQEREBERAREQEREBERAREQEREBERAREQEREBERAREQEREBERAREQEREBERAREQEREBERAREQEREBERAREQEREBERAREQEREBERAREQEREBERAREQEREBERAREQEREBERAREQEREBERAREQEREBERAREQEREBERAREQEREBERAREQEREBERAREQEREBERAREQEREBERAREQEREBERAREQEREBERAREQEREBERAREQEREBERAREQEREBERAREQEREBERAREQEREBERAREQEREBERAREQEREBERAREQEREBERAREQEREBERAREQEREBERAREQEREBERAREQEREBERAREQEREBERAREQEREBERAREQEREBERAREQEREBERAREQEREBERAREQEREBERAREQEREBERAREQEREBERAREQEREBERAREQEREBERAREQEREBERAREQEREBERAREQEREBERAREQEREBERAREQEREBERAREQEREBERAREQEREBERAREQEREBERAREQEREBERAREQEREBERAREQEREBERAREQEREBERAREQEREBERAREQEREBERAREQEREBERAREQEREBERAREQEREBERAREQEREBERAREQEREBERAREQEREBERAREQEREBERAREQEREBERAREQEREBERAREQEREBERAREQEREBERAREQEREBERAREQEREBERAREQEREBERAREQEREBERAREQEREBERAREQEREBERAREQEREBERAREQEREBERAREQEREBERAREQEREBERAREQEREBERAREQEREBERAREQEREBERAREQEREBERAREQEREBERAREQEREBERAREQEREBERAREQEREBERAREQEREBERAREQEREBERAREQEREBERAREQEREBERAREQEREBERAREQEREBEVEC6LExGsjw+gnrJmudHAwvcG2JsBc2uQLrlh8pmDkXbR4iQeIiZ99TJb8Itkdoi4sfKXg5cWijxEkbx0TLj/7qvlKwj1PEfqW/fTpfpHafbs0XG+UrCPUcS+qZ99PKThPqWJfUt++p6ZfR2n27JLrjPKThPqWJfUt++qH5S8HDgHUeIgncDE0X/8AunTL6O0dol1xnlJwn1LEvqW/fTyk4T6jiX1LfvqOmX0dp9uz0RcWflKwdouaPEQCbC8TfvKXlIwv1DE/qW/fU9L9I7z7dki43ykYX6hif1Lfvp5R8L9RxL6lv306X6O8+3ZWSy43yj4X+b8T+pb99V8o2F/m/E/qW/fTpl9J7T7dii47yj4V6hif1LfvKvlGwr1DE/qW/eTpl9HafbsEXH+UbC/zfif1LfvKnlGwv834n9S376dcvo7T7djZFxrvlHwtrS51BiTQN5MLbftqg+UnCXAFtFiRB4iFp/8AzUdb9Eyldmi43yj4V6jiX1Lfvp5RsK9RxP6lv30607R2SLjvKRhPqGJ/Ut+8nlGwr1HE/qW/fTrfo7R2KLjvKPhfqGJ/UN++nlHwv1DE/qW/fTrfpO47FFx3lGwv1DE/qW/fTyj4X6jiX1Dfvp1v0do7FFx3lHwv1HEvqG/fTyjYZ6hiX1Lfvp1v0do7FFx3lGwv1DE/qW/fTyjYX6hif1Lfvp1v0bjsUXHeUXC/zfif1Lfvp5RcM/N+KfUN++nWm47FFx/lFwz834n9S376eUTDDuw/FPqG/eTrfo3HYIuPPyi4YP8Ad+KfUt++nlFwz834p9S376dabjsUXGn5RsLDSXUGJgAa3hb99Uj+UfC5W5oqHE3tva7YWke56apuOyRcj5QsO/NuK/UN+8nlBw7824t/8dv3k1Tc+3XIuS8oGH/mzFv/AI7fvJ5QMP8AzZi3/wAdv3k1Tcdai5Lyg4ed2GYsf/67fvINv6E/7rxb/wCO37yapuOtRckflAw8b8LxYf8A9dv3lTyg4d+bcV/+O37yapufbrkXI+UHDvzZiv8A8dv3k8oOHfm3Ff8A47fvJqo7R1yLkfKFh35txX/47fvJ5QsO/NuK/UN+8nWnaOuRcj5QsO/NuK/UN+8nlCw7824r9Q37ydado65FyPlCw7824r9Q37yeULDfzbiv1DfvJ1p2jrkXIeUPDfzbiv1DfvJ5QsO/NuK/UN+8nW/R2jr1VceflEw0C5w7FAALkmnb95WfKfgl/wDZq/6pn30ss+Uyyu2RcT5T8D9Wr/q2ffTynYJ6tiH1TPvqEu2RcT5TsE9WxD6pn308p2CerYh9Uz76DtkXE+U7BPVsQ+qZ99PKfgfq1f8AVs++g7ZFxPlOwT1bEPqmffTyn4J6tiH1TPvoO2VFxXlOwT1bEPqmffTyn4J6tiH1TPvoO1RcV5T8E9Wr/qmffTyn4J6tiH1TPvoO1RcV5T8E9WxD6pn308qGB+rYh9Uz76DtkXE+U/BPVsQ+qZ99PKdgnq2IfVM++mh2yLifKdgnq2IfVM++nlPwP1bEPqmffQdqi4ryn4J6tiH1TPvqPlPwP1ev3X/m2/fSSm3bouJ8qGB+rYh9Uz76p5T8D9Xr/q2/fU9ajcdvdLrifKfgfCnr/q2/eTyn4H/wK/6tv30603HbouI8qGB+r1/1TPvp5UMD9Wr/AKpn301Tcdui4jyoYH6vX/VM++q+U/A/V6/6pn301Uu1RcV5UMD9WxD6pn308qGB+rYh9Uz76av0O1RcT5T8D9WxD6pn31Xyn4H6vX/Vs++nW/SNx2qLifKhgfq2IfVM++nlQwP1bEPqmffTrfo3HbXS/auJ8qGB+rV/1bPvp5T8D9Xr/q2/fTrfpLtkXEeU/A/V6/6tv31XyoYH6tX/AFbPvp1v0jcdsi4nyoYH6tX/AFbPvrf7O47TbQUL6ujZMxjJOiIlaAbgA8CfSCasS3CIigEREBERAREQEREBERAREQEREBERAREQEREBUVVRBqdq/wAlcS/R3/Arx3DsRhhp2skuC0byBY6r2Laz8lMT/Rn/AAXhOazBZ1iL2Frrbhy1WXJj2jdYQRIJahxu57ja9tAtmCOZJ4a/wXLU4c1uZrnMcTe7DYk/BZ0WIVEZAflmHI6O8dy9DDlx15jjz48v43wJNxe/t/gl+0/59i18GKwPIbITE6+52g8VnRvY9uYOuOYOi3xuGXwwsyiRGh14c/4LAc0T42Bplp2XNrDzitgCGguNrAXPcsDCgXslqnamZ5sewKLjNkyutthqNxBHepNJO/T2qIIsApBX6z6U3ftF8UcgyyMa4XuCd/iFVrZoxaGUuF9GP1FuQNtFK2txwG5QqJOgpJZbfRYXA+w2S4yTeiW26Ro8UFQ2R0kRiDHluYXIPtss6N7XtzMIcDxvuWsweIx4ZFmAu4F7gRrqVkinbcujLon7yWG3jdUxx3NrZXV0zhcjs/z2Ko7/APPgsNktRHo9olaOLdHe3msmKoikIaHEP9F2hU6/4pbftdFjy/z7FJv+f82VA0g6gqQB10TU+jtUgdOPj/BVbcjUe/8AgqAqQ3JqfR2rCx/TA60jT8W4f50XGUQJo2G51A49q7PH/wCg6z/DcuPoW/yOPTh+9Y5Yzu6uO/ouZf8AOqpbf/FXMpOlrra4fs/LX4a6rp5muc24MVtQRuCWYz5WxtrTWPE/FMpt/Eq4+N0chjkaWuaSHAjW4UbK3WG9IZez3lUsf8kq5ZLW3qOkR2W7d/iVTL/m5Vy2ipZOkT2QIFt/vKpl7T4lXMp5FMp5FOsTtby9p8SltN58Sp5dNypbW3FV6m1u3Z8PtVLC24eH8VdLdCo5U6p3UMo7PD+KW4A+7+KuZRZRyp1htEtHEX9n8VEgW3e7+KuZTZRINtxVesTtZqB+Ik37uA7F6D8nTQdl2G1rvdc2BvrzXAVAPQyacP3L0P5OR/qrF/fd8VjnJMk2/o6MMsOPu+xVDf8AOn2KdhzVbKXPuo2AH/6+xNw//X2KVlUNubKNRMtX6Znm5j8B9iuSShotceH8VFjgyO3YrEhLiSstbrW3wg9xff7B9ihl03fD7FcDdCgb2LSajLdWsv8AnT7FQt13H3fYr2W/BUydhU+EeVrLpx932KmX/On2K7l0KpbsU+EeVvLp/wDr7FTL/nT7Fdtoo2U+DdQDSBqfh9itm5J0NvZ9ivO1uoZdNxUyRW2rdu7w/gokC+/3fwV0t0US2wVvCN1iYiP9G1XH8U/h2HsWq+S+hparZ2aSppYZ3dZcA6SMOIGmlytviAHzdU/4TvgVh/JIP9V5v0l/7lz87s9Jbq7dN80Yb+bqT6lv2KvzRhv5upPqW/Ys+yWXJt3sD5ow383Un1LfsT5ow383Un1LfsWfZMqbGB80Yb+bqT6lv2KJwjDfzdSfUt+xbHKmVNjW/M+G/m+l+pb9ip80Yd+b6X6lv2LZ5VTKp2Nb80Yd+b6X6lv2J8z4d+b6X6lv2LZBqrl0TaPDVnB8P/N9L9S37FT5nw7830v1DfsWzyhMgsmzUaz5nw639H0v1LfsVPmfDvzfS/UN+xbPIEyBNmmr+Z8Ot/R9L9S37FT5mw71Cl+pb9i2uQKhaBc77aqdo01nzPh41NBS2/wW/YqfNOG3/wBgpfqW/YsuV5LrN0Cq0saCXHVNp1GtqMKw5sEhFDTAhpIIhaCNO5cPshg9BieANDpYes9K8FjxYkXNiCvRKpzTTSkegfgV4lhtdJSMs0EtDibgkEancVtwzd8MeX/Ph1eI7KS05cWwiw3WFwQtLJRSQOs+BotxLQt1hW2E8bRG+QTR6DJMNR2XW9jrsFxRgE7erPOhJALSf3Lt8yecXJ5+3CujgkBa+NoNuAsrD6YxasaJGHhbUBdtX7LZ2GWjc2Vp1BYdwXO1OH1NI8h7XWHMJjjjkjvY0j6ZslzCcrhvBWHJC5j7OuD2iwW8dHHJe/mkcRpYqzJE4NtIwSM5jerXjn00x5Gosb2JVcpvvWXNTZgTGQ4AXy8QsbIWmwB03g71pjhNfC3bfxVLJZXGgEbkyrSceP0dqgBomVTDewqtk9vH6R2qGVMqnZUc1xOmiZY4yfBu1GwA10VLtAvpopCM21JKp0XYVjd34xWn/wDUM+mgHtVM3YFeEI5KpiBGgVOmV/i3aLAdzGi9V+R0k7K1Vzf+XP8A2GLy0xkcF6l8jotsrVfpz/2GLl9TNTWmmNd4iIuNcREQEREBERAREQEREBERAREQEREBERAREQFRVVEGo2s/JXEv0d/wXhIha8gm9wb717vtX+S2J/o7/gV4Kyqia8sfcG5F1fj+VcmU2zWgXJsq3uL3UGPa8ea4FVcLHt7F07jDSdwRrY9hF1Jj3xOBie6M/wBk3HgrQJBtYKVwAePYpls+FbJWY7E6nq74SGuc4EZmmxFxa5vvWXh2IUopmQOcWOa2xzaa313rQvkbfK4OF9LgfvV9jWlgBGYHgdPer4c1l8q5cU06tjmvAc0hzeBBVSLAkEi3Ncq2SWBrjSzviNxoPOB7FlYfjNTd4rHZ2g6EMBt32XTjz435YZcFk3HQNLgdQsTGnkUIhaSHTyCMDkFepqyCcAxSMcbagEAjvCsVgE+M0cA16MGVwGpuNBdaZ5TU1WeON7eWfGwNiY0aZQBpuOim0EbtVQEgm3DgptIO8WKvPjTO3d2q3Q3OnJJI45GnO0OHM6Ee0KTW37VMNtrfQaqL8Jny1lPNUjFp4aeQvhgaAWPOhJ4A8Fs46uMnLKDC/cQ8aHuO4rW4GC+KoqnAHp5SQeYG49y2eVr2kOaCCLEEXVMd6TlZ8L4FwDwO481MDQrCbDJDrTSmPW5Y45mn7FdbWZTkqYzETxGrD234Kdq6Wsf/AKDrf8Ny5PDwOoxk+j+9dVjr2yYDWuY5rmhjhdpBF+V1zOHMJoITb+r+9Zzzm3x8YJ24Bb/ZCtEFdJTvdljlGhO4FaYs0O9SjfLFrG4i++4Tk4+2Ootx56u66vG8EixJpnoywTt0JaQQ7sPJcrJhVdG8tdSSEg2JAJB9tlssLx2ow1rmNjZI1xuSb3HctxDtdTu/2incD2AELmxnLxzXy6P0yu3K1WFVdK5gmiN3i4sd3f2qgwuucNKSV3cLrrptosJmbaWHMCLWLSCOwLV1FTRzOvQ4nNRkatBBI7jdPd5P/wBUe3h9tKcIxAadSlHe2yfNGInQUUh9i3dBiFbGAJsWY4F1g0m+l95XRMqg2IyOrqd4Dbm532G5VvPnP4n2sftwRwXEtxopfAKQwTEyCRQyacCAung2xpXudmgewtJaSBoVI7W0JJvHIfYpnLyX+Ht4T+uSkwfEWC7qKTnoBosR7HRvLJGmN43gixXbP2vpWjzIXn2fatDjGLR4kLMomR2N85+kVpx5Z26sUzmMnitLbRUtor2UKmUWXTpltasqWV3LoqZVXSdrRbpuVLaK7ZUy6FV0nsxqgWgkPZ+5egfJx+SsdvTd8VwVULU0ncfgu/8Ak1bfZSM/23fFc/L/AKaTzg6cNvvUsqmGqVjyWe2ekA3RVDVMN7FIDRV2tMVsgnTgmVXAFWyja3VayplV2yZdE2dVrKqWVyyoRqp2jS0W9iiRvV4t7FAtPIq0qti0QeSiVdIUSFaVTS0QqFXCFAt7FaVWxA71QqRbruVC1WVYeIj/AEbVf4L/ANkrC+SHXZioP/m3/ALPxEf6Nqf8J/wK13yQu/1YnH/mnfstXPz/AA6/S/Fd2luxUv2qheGtJJAA3knQLknl2bS0KpvC0mJbSU9I4xwNM8u4NHNaXENosYZSvqBE2GIbtNSrzjtV7yO0BHHRVzAbyB7V5tRYljWLQ9LC57iDYm9grc0tRUPNK+qkhqDcAtfcE8lecX/VfcelmWMb5GjnqFHrUH/GZ+sF4TXz4pSVzqepq6jMT5gDiMy21Hs9jM7WvqKw0wcAR0khBseNipvFJ/U9nsAqYDumYf8AqCmHNO4g37V4likWJYLWCKepeWuALZGONnDmOa6fDqKsdSR1VHjMjmvbchxuAeSj2odno5tZRJAFuK4uLG8Zw42qWtqYwN4Gq3FBtJSVoDSehlOha42v4qt48omZyt0TYa6d6pntuIKxc7nC4ddp3Eaqmp0uVXS+2SXFwvcAcdVaeRfRwt3q1bfqfFULRvPxSQ2qS0E639qpmaN7bqhLb8FQkHcFZG0Kl4NPILWGU/Arw6mYTE5zRcZjuNzvK9uqP5iT+6fgvG8Mia+muWOJzO1HeVHuzim1L8LQaDe4BI4E2KuxSzQ6xyFo5HULLNMHixIdwsdCFaNC5ovG4tHaLhb8frcayuEZ+H7R1dC7R72Aby03B9i6Wj2qoq9ojr4WSXFi9oAcO0riTFI0+dGT2t4+xRyMJ0Jae02K3meOflncHfT4Dh2JM6TD6huY65HEAhaKuwOuoSc0bnN7rrT01TV07g6KW9raEnT2hdJhu2NTG0RVsYmZaxDwCLdhW2OWePx5ZXHTn3wAuIILH91tVYmp9LSNBA3OaF3Lhs/jbND1WYjXUAXWvrNlauBpko3tniOosb6Lac0vjKaU8zy4t9OQMwFxwIUMtvpArd1FG6NxEkbong63BsSsSWm0uRb+0NQVvjd/DSZysAN7NFXKrz4SzW+/nuUQzsVotLtbypY8gruVOj7VOto2tgW0ICWaTYWurhiBB1VOgAGgPfdR5ie0RLQGEixIF7K1Rlz4SXNsQTv5LJkgkMDxDG+SQ6ANaSVaoKGupmv61SSxtdqHObp7Vx580nLMGkx/XZkuV6T8j+my9YP/AD7/ANhi89ygXNr8ivQ/kg/Jes/T3/sMWfr5qRPDdu6RUVV5TpEREBERAREQEREBERAREQEREBERAREQEREBUVVRBqdq/wAlMTt6u/4FfPU7YXynzrOvx0X0NtX+SuJfo7/gV85VWlS63NTBc6KVhvG4m2uhupsrZ49Hi/esRsj2m4cdO1Xm1J1EjQ6+9XlV0z4q+J4s4ZSshskb23YQQeRWp/k7xoSw8lXoJGjNG4m2uh3K0yqtxjb5RYbrdynbSw4LUMq6iLRwJtzWXFiMbxaQFp5q8yilwrJkcWMJaL24BRiByk5bX1tdSZIx4u1wN1Kx4WV55VVIBaSBYjcQbEHvUIKqaPEWT53PcBq15vccASqvBLSAbG2ijCyRp88gk7ipluyyadDBjMbrNnaY9N+9q2cM0cwzRva4EcCNFyN7iwUo5HRuDmOLXX0LTYg+3Rbzms+XNeGX4dm2wFwR3q3iEpp8MnmBsWxkA9p0HvWipsaniFpLSgHud47iVfr8ThraeKnZcOlmaHtcLENuCdeK29yZRl7WUra4XCIMNgjIsQwXB5kErLaNDY2VthblAbYgCwtysrrFpj8M8vnyZbDXUISGtLnWLQLkOF9FK9t6xcSk6HC6mS9iIyBfgTcfFL8GPy0rID+CdVUNe9rpQ97gDcEX0FuGis4W2+Gwn+z+9bSth6HZSSK1stOAe/QrCwiMHCoD/Z/es+Ofs3t/VIt7FTKskx9ip0QXRpjtYyBUydgWR0QToxZRo7MUsF9wTILbgsnoxZU6PsTRtjZBxCpkNuNuwnRZWTRUyablFwiZkxejHIDu4p0eh0CycluCZE1r4OzELNFTIskx9iZE0nbFLOwqmRZJZdU6MWTRtj5dFHKsnJ2BULDyCrpO2Pl0UcqySzRRLOwqNG2DWNApJe4/Bd98mQ/1Tj/xHfFcPWstSSn+yfgu6+TJ7PwUiaXtDs7jYkX38lxeo8ZOrj84OrAUgNFW3uRc+1tACWCKo3qEyFksqoidIgaqSJdE6UsmVV3qQAA1UExWi3sVC26uEXVCNFMqLislqg5qvkKBCvKyuKwWqhGivFoUC3sV5VLFqyoQrllQjVW2pYwsSbbDKonhC/8AZK0/yTXGzU1hqal2nsC3eJt/0ZVf4L/2SuY+T6qNLsbUdGfxj6l4BPAGwusuT9vDo4L1lrv3zxxtLnyNAAN9RcLm8ZxiSof1eC4ae2xPaVgRxzC5aXEuJJLiTr3KMUImqHlrgZBodNwUY8Mk2tlzbTo+qUQ6WQiaode7iL5eyyx9pKltZRxwQkjMQSNyzm4e4m5LTffdUlw+MfjJiwBut+Sm41E5Iw6VjqTBTBETE/QkjeQtPX1EGCzx9aDjI7zgAbkjnddZBQGeIPa9pad2m5azENh4MRqXT1dVK55FmgHQKItMmurjhm01G00U7RVsAcwaXBGvxXFY1VYnPXuFfLK2VgDAGkgADcRZdrs5sPW4diUtVI4DKS2MA3uOZ7VvMR2VZXfjZg1rwLEgBTNX5LnJfDhKrHafENnYKKaCU1kDQGyDc624ErI2UxmahL4J6eeWBwu0AEkFbKrwuKhc5jHA236AqzDM9rsseW/AABazi3FPexbiPF55j+LwudzeGY2VZqSWrbmbQvhlOoJdYX4arWS1eJwi4EgFriwWE7aLEGOLRM9pGpzJOKxMyldVh7sco2Mylkjb+cx54crrddZlfGDcMcR5zb7ivOfwrxNmgc1/eFB21+LHRlOwk7jrc9yplxba45WPSoqmcEh2UjmCpmpaAS8ndw1XmA2i2hlIy05b7CrgxXaF4u4hvebKvsLd3oMuM0ULiC4h3Iiys/hBS3sAT3BcOyrri4PqXwm28ucFsqWsiqWPyOY6VmrmsGgCx5eLLGbi2OeNunQz4/C6N7Q1xJBG7mF55s5XwxsZDPHoJHEuGuhJ+C3z6tjmkAg3BstFsxOSx0DqSORgJOYjXeuWycuFmTSY7ykdHK3BpDG2B7zmd55LdwO+ys1mH0jQG0c4cDrvtY9y2DIaGSAOFNIwNtcsWoxOlo3NvFWPicTpnHuXBx+nuWWsa6eXixxx3Fp9DO0XADhzWO+B26SA94VWUuJRi9NVslbvAvZT65i8AtPSCUDiAuv2PU8f+Xm7jFdRtveOQtdyKi+OoY0lzBI0C9xvWZ88UxOWropIjxNjZX4X4fU609QGuPA8FOPrPUcP+oiYytWyRgAzZone1bCixyvo3Xp6hzmjhe9x3LKdh0rxdvRzNO7UAlY7sIBcbxvicN5G4Lp4/wDyuOU1nFbxTbdRbUUlW0R4xRtOls4GquHB8LxFhkwyraxx1yO3E8lz7sHrwPxYbK217Ea2Vg01VTuzOp5oXA/SaNCu3j9Tx5ecMlLxVn4hgVdRBxdTuc30mi4IWkmhkuRbLbhZb2i2jxGj/FukE7APoSN4crlZxxLA8UFq6lNLKd72DS/NdE57VZjcXHhpa2zyb7+1UdPEzQuJK6qp2XFQzpMMqo6plrhtwCAucrsInpXls0L4jfiDY9y09/KTwtjq/KyyeJ4sHWtz0V1tn3DSD3G617oSwnzb27VOGp6LdFc9+9Ww9Rf/ALLXi35jodn2SPxCOBlQ2DpTZznAHS/C/FZe0fS0WJOpRX9ND0ZcQQN9ty0+HvbO1zwSC3WwNiCo4gzMx0hLi5xtmJuQvB9Rzb9T4elxcE9ntWE+thadAXG5Xo3yPG+y1Wede/8AYYvNDRZTo9pA43C9K+R4ZdlqtvKvf+wxd3qOTLOTbkxxxxvh3aqiLkaCIiAiIgIiICIiAiIgIiICIiAiIgIiICIiAqKqog1W1f5K4l+jv+BXzjV/7Q7vX0btZ+SuJfo7/gV871MRdM4jmpk2MRFMxkbgVQtI3gp1ptFTY9zfouI9qjYjeFRTKMplU61ntDh2qYNNIdbsceHBYaK20aZpp5G+dE+47Cpx1k8PmvFwOawmyPabtcR7VfbWOItI0OHvVpVbGxir4pNHjKVkNcx4u0g9xWoHV5dxMZPAlVEU0RzROuN+hurzJXq3G/ci1kWIyNOWZtwOICzYq2GQWzWJ4FXllZ3GxeJ0VrQuyh19bm51CumzhdpBHYVHo2l+YCxHIpsZ1LX1FOAGSEgaZXagjl2Lc0eORuAFQwsNrXHnN9272rnGqbbhwAJHHQ2961x5Moxy48cnbRTRTRdJE9rmHiNRfldYeOguoooAdZp2s7xoSuchnfHLmY5zH7szdPEcfasn52klqqQ1Aa5kEmcloJcTbkdPBa+5Moy9qyt9jgy4FVtNjaIgEdgWLgMJdgtMbb2fvUsWxCnqsBrOikbmMZ806HwWXs3FfZ+jNv8Asx+9Xxy1mt13goYDyVOhPJbIw79AqdAOS37MOrW9CbblToTbd7lsugHJOgFtynsjq1nQnknQm25bHoByKdAFPeI01nQnkE6E8Qtn1cclToCToL+xR3ietasw9hUeh03LavpXMALgQDuuLXUHQHXRJlKjrY1vQnsUTEeS2ZgNt3uUeg4EBOydNaYzY6BR6LsK2RpxfcqGn7FOxrDF2Khj7FsjAb7lEwdijcQ1/RnkFExa7itgYBfcomHXcUN1p8Qjy0ExAOjD+9dRsFCw7ENlDQJGSOcHa30N1o8WhLcLqDY6Rnh3rovk4aH7FZCd7nj3rz/U/wCnbwf5dgw5o2nmAT32VVZoyXUkRJ1yi47bEK8uRvPgVbINyqpW0iBqpIq2F1Bo4KllMjRUso2tpQBVUgFQjVE6UUXEWOqq7TconepilUuolVO9RKtGdiKoQp2USrM7FsjeqKZCiVaKVh4n/RtV/gv/AGSuI2Fnjbgb2Pda8zrN5nRdviYPzbV2GvQv/ZK832VzR4JJUMAHRSPNydLixVcv9NeObx06eox/C8PqxS1c9pXWsGi9r8+SVVbHSTB9O1jmSgEOBvdaPZXDYZ8MqcexVhlEshb5wvYDlyViucKKudTNdeJ4zxX1sOQTDkly1U5cVmO46FuMuAN2tCqcTjna6OeMEHdY6rlutEaElVFWQ4HNYd66esYdMnZU2KRQxNYxpa0btdVfGMx8yuKbWH0verjasn+t71HTFGs3atxppH0iLquJY7FRYe6aplyxgbhoTouOjrCTvJstFtbXyVMsFIXnLa5107FTPCYzbTDtldVtDtiayoeKfCjURAm51vb9y2VE3D8XYXUbnQ1Q+lA/Qg9iycFwSPDcEhqKlrmhwvlaNe8/YtJtLTGglhxnDyWOaQHW3OF+xc+HPd6bZ8Es8OuonllGaeoDHvbuJF7e1c1tBhYqWuLA1jgSQRpdZ9HicVZDHVtcAXNFxfeRvSsqWyAkNJFuAuu3C/1x/tK4qeNwmDhEWBos6xvchZuG0eH1QkElc+lqgQ6OR2jdOGuiyKgwOe4NkaDfUEi4WFJAHnzS09yv0wvxW+PJl/Y2I6CpY6Orr5hVN0Z0AFpB/FRZRQl5aaDEZnDeHHKtcymLXNcxwa5huHg6grPrMaxJzGx1WKdE0CwLRYuHPtWeePWfK8u15mByTVHS/Nbo2Aea2SU2J4XWeyGroad8r3UdPGwasbYlw5XXNHFKQA9PiNXMeIBsCkW0NDDIDDRPkNxbO4kH2LnyymtVpMa6aVsDTfK67xmAA0AI3LSbIvHSPaBmBvbx3Lq8DxFmKYY+YxsBYCCLbtOB7FzOykUcbXVL5QS4uGTjo48F5uf643UdnHlJlNvSMMqaCGhMdQ1rXEbiN64naGWA1LomWDXOu0Hj3LJxSQ1jmupJmRtaNQDvIWnOHzzVkUjp4n5TrdwWPFnq7sX5MpdyMV0skI0e5vC11cixGoiF2zgjk4XWbLgrpZjI6SPMbAAPFlbGCOaCHlriSbZXX4runqY5faGY7I6MCaKGW5sQWi5V+jfQ4jUFoomtfbUtJAurQwVwHmx3Ntw1KRYdPA4PZG9hF9QDdRl6nHOasMeG43ad6V0hghfPDIwkHKTYK8a+tpgY4qpj8triRtysPB6SpZjDpZmlzC0k3B3jmkmF1b5ZJJA4lzr6A7r6LKezfmGWFt8N3h+OV0JEklJBORuIcAR7Fns2saxrm1WGPIdfzgAQFy+H0L465jpYpJGMILm2IB13LNxFks9U+Wkjkp2AABjQSNFHXh+JdJmGTbDE8Ir3BnRsD3cHst71Ynw+kmDhAyIkX+i4aexa+JlcxxAaCdCM7NbcVZxRwpImy1NICZXXDmOLSLLPr5/XNW4ZfS7JQYjSvMlMx4tuykgq63aOup2iLEacVLBoRK3UDvVmkxOOGkE4kmAc62UyEnvtyWR+ELpDdpic0C2WWMEe0rfDPnw+fLK4xB34PYrr51DKd99W3/csGt2VqGsdJTOiqYzqHRuBIHaAtnFPQ1biajDoTbUvhNrdtlCohwmB3SU9VPTuI3NGg79dVrPVfzKGOF/jSYPRuZLPHI4tOgAV3F6ZrKR15DfeADvWThMTYcRe98jpmEAhzxbiruOz0MlM8ttmeCWkbgQF5XJncvUbx+HtcWpw6rjwXWsCd++69V+R0n8Faq/rz/2GLygPaBa43m2q9W+R38lar9Of+wxer2tnl5lmneoiKoIiICIiAiIgIiICIiAiIgIiICIiAiIgIiICpwVUQajaz8lMT/Rn/Ar5/e27ySOK9/2r/JbE/wBGf8CvBHAX8VfD5UyWCwclAxg8Fk5RZUy6LTSm2K6AFWnQkLNy6KhjBCjSZkwCxw4HwUdVn9GFF0IPBR1X7MJFkGC4NhZW3RObwTVTtAK4yV7D5riOw6hW7EbwQiSjKbVNeMsrAe0KRiik1jeGnkTZYYVQbG4KtKjTMHWINQSR33WTT4iB5srfasCKokj3G45EK+2eCTSVuU8wFaK2NvDJHKLscD2XV7IRqVpRACc1PIL8r6q5HWVNObPBeBvvyWkrK4trYgm+is3vOAWmw1BChHiMEjbHzHHSxWVGWPsWkHtBup39I+PlCrceoyi4IyjS2viu+2ViLtmqF1jrEOHeuArBakkt6K9J2QzDZPDrAW6EfvU9rKTGWMowkcPcqCEncPcst2a+73KNncCB7FeclUuEYxgI3j3J0HYsgl3Eg+xUu4cfcpnJUdIx+gtwN+5V6s61y0+Cy4nuY+9g7sssielc6LpAXAkXAB3KuXNZdJx4pWuZRPcCQAO0rMpaOOnfntmNtx3ArAnkqI2lpe4AbirDaydunSE96XvnE4zHG+WdiVC6rdmzBuU6ArHkw+cNOQsNgBqsSSplc64cRzF9FNtY9pFyTbfqpxmeM0i9LVxtFPmDXRNaLauBuCquo3AnQHuUBiYa7MW3cNAL6K1NikrjdgAurTLNW44LvVHE6Mv3KLqZw3gj2KzDi07D+MAcOzQqbsRjkN3hwtwBVu2cV6YUMGu4KPVyTu9yvQ4jA0m97duqvtxGk3kbuQUXkyn8Jx4sE0/JvuVOrOINmk9wWxFdTvBLA0G2gNlZ66RcCMdlhvUe7kmcWLS43TObg1W4tIAjOvtWz+TFoOyDAeMjx71Yxyplfgla0xEAxO1WV8mA/wBUYu2R/wAVz8uVyu2+GMxx8Okw/wA6kZfhce9ZFlYoRaNzRpledFlWWLTGeEQFWyqAq2Ta0intQDVSsllG06EsqoqrCod6qqHeiESFEjVTO9RV0VEhRIUyFQ71MZ2LaoVIqKtFLESokKRVDuVoysYWKADDKo/+C/8AZK4DZSA1WyVRA0DO6V5bbibCw8V6BiYvhlWP/Bf+yVwuwznNwQho/wC1cL+1Zct1G3BHQbF0jnbJDD6iMMkY9wc0jQ3Ol1y23EDqPaLD4YCA8DS/K/FdPHXT4dK+foDNE8Xexo1BG4gLgNqpsWx3GzWMopmNbpHYWIAWGGWrt05Tc03WauYbOjp3aC17AlXGiuOrsNhl7itXIa35vgggw2WSdo8+R5O/sWA3Dtpi8ujbKy+oAcQAun8iMParoyXAfjcDJ/ukq2+pomD8dhM0fcStHG/ayndZonNt9xcLKh2k2gpTlq6AzNGhDo9SO+ymeoxV9qs99VhRjJbTzRutodbXXL4q9r8Yp3a5C4b99rhb2TayldpUYQ5h4gCwuufx7Eqetqo5aOJ0WXgeanPPHLD5Rx45Y5eXteIQsmwdjXD8SIhct3jQahclj1A6DZaaOYEhurXHeQeC6PZPF48SwGnqgQ+zBHK062IFteS1/wApGIQQ7PGNrgJHnQDkuOOp5rgNU7KYCXBrHX0O4XW+fW08bbwulJA4g7/sXLYFiQw6qdK9ocHN0BF9brLq9p6mckNbG1t9AGgFdeOUuOrWNx1l8I4qYDBkgp5RUlxc6YEkEclaoKZ7i2R8z2NYbvBNr210WJLidRIdX+4KwaqVx1ceeijeMu9rSePhv6uqdOZJIWAEANaL2v2qOJOjrMCpzI9jaqEkFu4kLQmeQm+Y38FBz3ON3E+9Vzz7f1Mml3omg+dI0dgCm0QMIc1rnuBvqbBYwJ5X9qqHngqbizc0eL1UOSCGToYy4XDdb68VShnnp2dJGSCSQSd2p17lq4HEzxg7i4fFdzsnslDi2EismnkaXOcMrTYaFRdEc2auTNYSOa43uQdDdXWTkus9x3XuCQu+j+T3CwLyzvJPEvAsjtjtnYDeWqBtwMl/gqWRrjdfLz98ri+7JXaDXzipwmreQY5H2J0JcbLuDgmyjDYGSR39gE3KtHZnDp3g0kVc2MaANjsCqdYnbmKaoxOmPTwzPIboTe4BUmVOKdM58lY4MOpNx7l10Ox8GQgtqQ07w5wCqdlMNYD00oAHB0g0SYT+ottjj+sVweXR1bs3aQCrjMRxJubNiJtyABXVnCtm6bWWohuBxeSqdZ2XpyOjki05Rkm6XDH6VkrnabEcScHBlTKc2l+jWUKzHAQLvc06XEd9PBb6HaHA4CcjnO7BGAFWbbDDgLRUsknI2AUdMfpaXJpus7QyPJEUhaRYXbb9yuuw3HcSDIJ6ZxaXXaS0ix8FmDbCqLv5NQNHLMLlR/CXHZ3FrC2IcwNwUTjxl3FrnbNL1PsfirGZHQ05bb+sbkKcew1aXEySRMB3AKyyuxiX+cxAtPIK9E6qlJM2ISEDQm9gO9abZai+zYupjBy1MTbixF7LW4vshLTsbK6riDLi5zXI7bLasbAwFz6mSS2lg4m6xsRgjmZHIGyfSAs5xsRfioti0n0izZ+niopSMVicTHY68xuXGUdIXzzUxc1zCS1rnHcbrsamOnZQTxAxjMN4dcjTguTfSxCYMbUaA3uNLe1ZdcfmNe1aV2D1XXnU8AEhBtodDdep/I8xzNlqtjxYtr3gjkcjFwkbaWlqHSPqrHTcbkrvfkhIdszWuBJBxCQgnf8AQYtsb4Y5fLukRFZQREQEREBERAREQEREBERAREQEREBERAREQFTgqog1G1f5LYn+jP8AgvAnfS9pXvm1YP4LYnb1Z/wK8D+k4gB1r77aK+F8q5a0DepWCpksfpHwTKeZ8Frv/inX/pZLKoBO4nwVLOv9L3Jv/hr/AKZQq5RzCpr6XuVQDzPgmzrUSwKhjBG5TsfS9yWPpe5DSw6EEG4Csupwd2izMp5+5Czt07lH/pLXmBw5FW8pG8LZ9EOZ8FExAg3JKf8ApZrgbb1IELMNJGd+cHsQ0kYG96f+jcY7NDcOI7isiOpkaLOs8cAR+9UFPEOL/AqohjA0L/Aqf/StkXG9XmHnAxu9ykI6iA5oHlzd4G9WhG3m7wVxl4zdkjx2WJCnaOq6/EHOhfFLGQ4i1+1et7HC+yeHX/4I/evIJnufGQRfTg3eut2abtlV4PEcHm/ksd2NH4kWsebgT71Fy+0zF6QQ3sUcoO4XXGNo/lAz5TIC619XQlXBR/KGNzmf/wClRs612AYSbBt/Yq9FrbKLrkBSfKJb6UfjCqdS+UMOvdl++FT2R0dpFGWvuQB3qU7gAQHE6bguJ6n8oh3uYPbCqCh+UO+pjJ5l0QVJd3ynWvh0ks2Y5XtFr6E71gysAfcaA7lqPm7b8uBc2M2BuC6Kx8NVI4ft2RY0tP3iRn3lvjyzFllx2s6RpAuDe6sOcRdYnzXtyW2dS07jfeXs+8qfM+2p0NDTH/3GfeWk58f6zvFkvOJOqtlxUDgm2ZB/kNKO0SN+8ojBNsgNcPpndpkZ95X/ACMUezkuF5G9RLzrZUOC7ZaWoaUDiM7T/wDkq/NG2JFjh1Hbse2/7Sn8nFHsZI53cCpAki7iQOxQ+ZtrgT/o2k+sb99S+a9sALHDqP8AXb95R+Rj9I9nL7GTtYePislmKujacrQTuBKwjhO1hJzYbSj/ANxv31T5o2q/NtJ9YPvqPexv8TOPKf1l4tiolwSqa9pDnRuBsNLrb/JgP9UIj/4j/iuWrsJ2n6jP0uHUrWBhc4h4uAAbkecdbdhWPsxiW0tBg7IcNbA2nuXN6UNueZ1INuRXNyWW+HRxy6erUuk1Q3k+49qygvMWY9tcyaRzXUd3Wvcst8VM7R7YDe6hHeWfasmmMemWSwXmX4T7XD/tKAe1n2qn4U7Xf8Wg8WfeRd6fomi8x/Cna7/jUHiz7yfhTtcd0tB4s+8oHp2iaLzH8KNr/wDi0Hiz7yfhRtedOloD7WfeQenaKi8z/Cba/wD4lB4s+8n4T7X/APEoPFn3lI9LIVNeS81/CXa+306HxZ95U/CXa8j6VD4s+1No09KsqEHkvNfwj2v9Ki8Wfan4RbX8XUXiz7VO1bHo5CgV50dodrfSovFn2qn4QbWW+lReLPtVplFLhXohB5KhGi87+f8Aaz0qP/6faqfP+1nE0f8A9PtU9opeOu6xO/zZVaf9i/8AZK4bYQRnBHCSUsPTPsCO5WKzHdp3UczZnUgjMbg6xbexBB4rm8JxiuoaV0VOWBpeXasB1O9U5P2nhfixuNeninDheOqjPIEqpoam12dHJ3FedfhLilx58d+yMBS/CnF27pmjuYuf2632798FTHq6B2nEC4VsyOafODm94suHbtpjkW6oYR2xgqZ29xhws+SncP7UIKe3UbdqJL7rG/chLTo5oPeAVwr9rsSmN70w7orFUZtJixPmyRjsygJ7dTt3DqemfcPgjN9NWhY8uC4ZMDnpI3X32Flyf4QY1a+aO3+GFdp8Zx2oJEJgJHAtAPxU+1kjvHQxYTPhsnTYDI2B9rOhdqxwXO47g20+MTF1Q2NzQdA11gFlNq9qCSBEy4/st+1SbVbVuJAhYSP7LftVpxZxHuY/bnm7DY0f+yYP+oK63YTFi2xETeZLl0LTte7UU7CL23N+1TEW2Tt1Izwb9qdMyZ41oGbAYgfpVETfej/k/rgfNqYT7l0IpdtD/wB0Z4N+1V6ltt6mzwb9qr1yW3HODYDEDvqIVNvyf1gHn1kI7hddB1Lbf1Jng37U+b9tTvom+DftTWRuNIzYB3/aV7fYFeZsFStP4ytee4LZnDttPUmj2N+1UOH7Zga0jfBv2p1zNxix7G4ZCC4vle5uoubC4Utk34HFgzXYjVVIlL3kxRkhoGawU30m2ABDqVuosdG/auSpBUxGRvRtDmPLSCAbEG5srdM7NJxzxj0qPGcBhZ/J6KaawsC538ViT7UwRn+TYNELG4L7kjtXHNrsRY3K0saOBDRdWZZK6U3e4nu0Uezmt7uDqZts8TAIiZBAP7LRda2o2oxaYHPWuF+DT9i0RjqDvue9U6Go5HwCn2Mke9iz5MUrpTd1VK7ucQFYL55CcznkHm7+KsiOpG6/iqgVQ3XU+zkj3YutiJ1cfEkq4yEHfcrHBqgb2HgpCWradA39UKfby+ke5PtsIIo26m5KzGNaWgNaSOJstOysrWG7Wt/VCo+sr3G5cNeACe1kjvHRRZm6lzWgC1raqb6mOIXdINeA4rmm1VaB/VPe0K26arcbkAnkQFHt5fSO8dbh9S10r5Hi8MYsSDvJ3C6wMYxaSqqXUkTg2Fg1LdLk9q08FfXwRCOItaAc2rRqe1Y7nVJmfLch7zdx7e5LxZfS8zjqqTG+gomQPkccg1Ibv9p3qzV442ZuUdK6x4gALnDJVne46KJdUne4juVfayPcjYS15c4hxeGkc1gzPD3EguAParRbOb3cSo9FLzd4p7WR7kUyguub+03XqnyO/krVAcK5/wCwxeVmKQ8SvU/kcuNlKoHf15/7DFbpcZ5Rcpl8O9REUIEREBERAREQEREBERAREQEREBERAREQEREBUVVRBqdq/wAlcT/R3/Argdl8Gw/E9n6e00RqdQ5rwATqu+2r/JXEv0d/wK8Tw7EJaaNoAJDSSLEgj2rfgm6y5f8ALqsR2VlpnEtiFhusL3WmkpJIHEPhbpxIW6wrbCWNoilkbMzdkmGvcCt4ytwXFIw2YdWedNQC0nsK7vMnnFy+ftwrooZRlewA24CysyU7ogbNEjBwtqAu0xDZUlvS0hErSLgsPBc9U0NVSPIe1xA5hTjMckd7GkkpWyAmE5XcWlYckLmOsQQRz3LePjjebu81/MaaqzLEQLStDm8HAajtU3j/AONMeRpwCBroqhp56LMmpSRmjs5u+3ELHyFp1B7lpjhNeYnsjZLKYF92qZStJx4/R2RyquVSDewqtk9vH6O1QyquVSsqOa5xsNApyxxk8REtqJAA1so5mgGwBKl0RG8X9qCLXcsLu/GK/j7W89/6qZiOAV7oQAhiuNAqe3l9J7RZc45TpwXq/wAlg/1SZ2yu+K8qkYQ3huXqvyWH/VNvZK/4rl55ZWmFdZuqmHmyyvBWXm08faCFeXOtFURFCwlk4qqClksqpwQUREQDuUVLgqKYhEqJUjvUTxVopUColSIUSrRSrbhoVGyuFRKvGVYWKj/RVZ/gv/ZK5XBacP2foCANYhqO4Lq8VP8AoqsP/gv/AGStLs1EH7NYebb4R8Aq5L8XyxXUu/QeCsS0m/RdA6nBvoFakpQRuCo6HLzU9gdFjGHsXR1FJv0WvkpiHHcoGsEAPBXG05tuWxip7kacVkMpOz3INM6A23IIbHULdGk7FadSWO5BrBELJ0fMLPdBlG4K2WEbwESxMgG4KQaba/BXy0cAoFum5BbLRbclhwHip2VLWRCOvMpbTcFJEENeSrbfdS3KJN0QxsU/oyqsB/Nn4riYqh0bS0C4ubrtsSA+bKsn/hn4rgS4B1td5T+E+WaypYSMwLSr7XtcDlcCtbYEaEH2qTQQb3I5WKbNNkG3BuAVbdA117jwWPHNIzjcclejqW7ntI7Qp3FfMQdTlurCe5GufGfOaSsuN7HjzXDuKqWA7wE0lbjqi0Wvv4FZUNQ02IJYb72lYzqdrtePYoCORhOU37Fabitkro8OxaqpiS14kabXB1Nl02FYnTVcriT0b3WGUmwJ4rz6GVzLZgQQtnS1TSRe47RoujHP+Vz58c/j0emY4Oe5jtM1wN43LPppA/XcRpbmuIwnGp4NA5srDvad4C6XDcQgqqYtEmWTUlp007EyjOeK6BguNFeA3LCjkMbGAkuDrADlfisqKUPOUgi3NcuUrtwyi6iIqNFCNCrUh0V125WJSOYVsVMmJOdTYLxqIXqaw8qh/wASvZpRc6LxyEXqa39Jf8Suvj/1HLfEVsltLq5ltzW2wDCqfFZJYpZnRytF2gbiF0Zaxm6pjd1piNFHKeazsSw2fDakxTDQm7XAaELEy9iT9puIt1dI2VLaK5lvuBNlS2iaNrdktorllSwU6TtbsmUWU7aJbsUaNrdtFSyukablS3Yo0na2Roo2PJXbKmXXcmjaFlSwsrllQtUaTtbsllPKhGijqbWy3XcvSPkeB/Bes/T3/sMXnNuwr0f5IPyYrP09/wCwxcvqJ4b8Tu0RFyNxERAREQEREBERAREQEREBERAREQEREBERAVFVUQanav8AJbEv0d/wXhlNG4wZrXFyQRqR7F7ntV+S2Jfo7/gvF8OhD6RhMbuOo70nNOHzVcpuLAAOgN+w6FXYpp4NY5COx2oWUaVsgsS13IHQj2qJonNF43EX5i4K6eP1uNY3CM3DtpKuieD0kjALEkG4PsK6ak2oosQjEeIQsffQvYAHDtK4gxSMPnRk8y37FHJGToS13tBW8yxz87Z3B3s2AYfiLTJhlQ0uOpYdHBaKtwSuoXEPjc5o1uRewWppqurp3AxSlwG7Ugj2ro8P2xqGMEVdGJmWsQ8A6dh+1bY3PH48xlcdOefA0uNrxyc7aE9ysTU5t+MaByc3W/eu5LcAxtt2uFNKRqNALrX1ey1XAC+ke2ePeMputceaXxZpXzHGyUxAzDUcCFby20cCCOK3c9G6N5a6N0TwbEEGxPcsSWmtckAHnwK6Mbv4XmcrADezRVyq66EtNwb/AAQM7CrRaXa1ltwTKeAAV3LwQMF94U2bRtbAtoQFUAHcrhhB4lUEIAsLjtUayie0W3ebE9x1sDYKFGXOpRmb5wJuT27lenp55IHMpoHyyO0GUE2HsVKOgrqWN4q6WWMHUON7FcmXPPemG2kx/Ta09t2OvwBXpfyVuA2SAIOkrl57I38U7QfRPwXoXyVj/VIcfxzlj62ayTxXcdXK9pfE5pv55BsdyyW6ha9/mteWnVsgOu5ZrHguykagA6Lgs8NMb5XERFVqcVVURBXgqIiAiIgFR4KpVFKFFQqpVOCspUTvUCpneoFWilQKi5SIUSN6tFKw8T/oqr/wX/sla7ZBmfZXDzb/ALID3LZYoP8ARVZ/gv8A2SsPYlt9kqD/AAx+9VzW4vlsDDqdFB8JtuWd0d+COiuNyptu1EsFxuC181LYk24roZIBfcsSeAX0TcS1UVNruG9ZTYNNwWVFDbeBorwiHJSjbB6vcXsFafT67gtr0I4DVWZmMjaXSOa0AXJcbAKDbTTQEEiyxJYyCdExLazBKV7ozO+Z43iJtwD3rTzbZ4c93mU85HM2CrbEtg9pHBWyNVrodp4KuYRU9DUSvdoGtIJK6KlwytqY2ukhbT5hcNe7W3aAo7QashRLTY6Fbw7P1Z1Doj3FYpwicl2XKXDWwPBReTGXQ1evJFlTUU8Zs6NwPwWM5habEH2q0ylQjomltyod6qrfIxcT/oyq/wAM/FcA5xDrAgXJ4L0DFABhVUR/wz8V5+4XPtKX4Rj8okA7xrzBVyMuIJudOagWm1wpg+blHtKqskHa3IPeCptIO4g9hKtAgbiVUG53A+5EL7QQb7u4q9HNIwaEEcjqsVrjwNuxTEhGhsbq6GeypaQA8EHmFeiLXglrgTfULXBwIF9/arjLjVtwewq0qljZZGkahV6Nw+jpyWNFUPaLGxWbTvbO7K3R3I6LSaql3E6VzhK1pNruAJvu13r0WHCKX5ua5pu7JmMgNtbLkaOma2EiRjddCSpz1VYwupKaqkMJGrQd3Z3LWY2xjlq10dBiswtE93TMY6wI3gA810FJUxSObI1xaXu0YTqPYuIiYaKmikfJmkk1LQfojmVk0eKllSHB1iCNb3vqmfHueDHK4134eCNdOClcW3rS0uNwyDLM4McbAG+hWw6w1p1OlxY35rkuFjqx5JWQ46Kw8gk7lUuFrg3vyVmQneFbGK5ZKOtfgvHKcfymu/SX/Er115N15LRNzTVpIv8Ayl66eKfs587+tXLWOqzMGnkpMShljucps6wvcEqyY9NUDSD5pLTwIXVnh2mmGOfWu4q46HGI30vSNkIAcC0Xcw8VzNTsriUUpETGzMubOJtYdqxaSvq6OXpKeUhxFjcb1uINrKxg/GxNk562XJOPk4/h098MvlrJtna2CkbNI1pcTYsOpA56KzDglXNcQiI8xnAt3hdCNr2ltnUlzyNiFg1mK4fXXE9JJETvdHYH3J35fo68f2whsxirjYQsPHRwKqdlsWt/NMA7XJBJBA97mV1TlP0Wkk2XRUeJ4c2NhdiDmusL3G4qtz5Z/EzDD7c7+CuLXt0Uev8AaVfwTxUg5mxC3N1lsptrpI66SJkImgb9GQmxKqdrz6tfvKTPlv8ADrxz+tU7ZTFQ0kRRutyctfW4bV0DstVA5hPLULon7XyEWbSgX03rBxDaOsrIXRGONrHaG4ubcrrTC8n9iuXSTw0OVLK5lvcneTqmVdOmO1ojRUsrhamXRRo2tW0VLK5l0TLomk7WiNV6H8j/AOS9Z+nv/YYvP8tl6B8j/wCS9Z+nv/YYuL1PxHTw3bu0RFxOkREQEREBERAREQEREBERAREQEREBERAREQFRVVEGo2sF9lcTH/ln/AryTZ3EIGsigqI7MBN3DeBzXrm1f5K4n+jP+BXkmzNQ50JifSRPjaPpEanVZ8nHjnhdpwx7ZSOgkbg0s0bInPDDq4kWIWPW0NIC1tHO1zRu1stkIaJ8AlNLJGBoS1aXE6WicAY6uSFxcLFwNr33LzuP09yy1K6ubjxxx8LbqGdou0BwViSB26SEjtCqykxKPWmq2SNGoBNlPrmLwC09I2UDiBvC6/Y9Tx/5ebuMU0bSbxyFruRUXxVEbSXRiRoG8LNbjNMbtq6OSIjeQDZZET8PqB/J6kNJ4O0sVOPrPUcM/aJmMyalkrGkFwfERwubLY0WO4hR/wCz1Be0H6N7rJdhsrx5ojmBGlrXKx34QHOIEb4nDeRuC6uP/wApjlNZxneKbbqLaejq2iPF6RmosXgfvUzg2GYiwyYXVta86iN1gtCcFxAC8YbKzkRqrBpaqncXOppYXD+swaFdnH6rC+cMlLxVmYjgddR3L6dzmn+sASCFppoJOBynlzW9odo8RpPxbpBMwaZZBe3is52IYFigtW0xo5T/ANozdftC6Jz2qzG4uPylrfONrbyomohZpck9gXVVWypqGGXDKmOrjtcNuA4LnK3CZ6aQtmhfE4H+sCb9y09+68VfGTflajnjffzrW3A6K60B480g92q1zoyx30b27VdhqjGbCP3q+HqLr9k3i38Om2YjdNiLac1Ladsgu9xAJNuA702hc6lxOopRX9PTMjBGg0PK61+HuE0RlufNNgGmxCsYhEHNzG4MpsS4/FfP8vNPytx6WHp5eHtWFNWxZMrQXXBF+S9I+S0/6pN0t+MdfxXmctHljcRI0gAnQr0v5L5Gt2TaHOaCJX7zwuvR588s7NuLGTH4dLKLNnHKx96umQMlY47nNGqtuAkqJIwQQ5l7jvU54h0DHX+iB7isKSX5jLBuAQVVWx9EEcQFIOANibEqjWVJEREiIiAnBE4IKKiqqFWVUKipKnBShEqBBVy2ijYKYppbIN9yoQTwV0kclG4U7VsYWKNPzTWaf9g/9krE2IFtkcPv/wAIfALOxU/6JrP8B/7JWFsQQdksPsQfxQGncFTOr8c8t60aqpAtry17lJo5rntqas5oaITGJrwXykGxIHDuWWWUx/q+V6+Wznq6WEEvmYbbw0gkLRV+1VJTktjgfId1y4NB8Vx+0EgbNFFAXBhYXEhx1voAfatXFHEXtJYwtz3OY3Fm6niq7ys8Un7TbqanbmpjzCnooG2OUl8gNjy37+xa6Tb7F25iI6UZTYga2PatJGyJ5gBawF7nTOsANBu3lW2dHJEwkD8bIZHEAbhr+8pqz5qvXw7elxrF5aAVtXXQQQn+q2O5PYFqK3F5K+okZI/pWtIBL3WGvYN11o6SslmnbLWktp4iQI3Ai+mhssmOWimqLNJa1wNs4JBPC9t3tWOGNtvbJjlnd6jeUVA0xNDW0bWu1JMZJ17Sp1Wy2HVDxJUztZpYiMBostU+Y01NTwwdJK9mYyGK5aeAB7FrscxWrMVnl7WHQb7X71z8vFn2/TJOPJ51Y7DAcPwagqJG4dK189vOIsS0DtW9kroKcAzTMj4EucAT7CvNMCxsYRhzzGwSVMx80km/YO661Ve6WtmdPWS1FRI4m5aCWtOugJ3lW4+PluWrfDfDLb1x2IU0kTnMrIsoNiQ4ED3rSVWL1IrmUWFOjOclhmJvlB4+zevN6Of5vrGzAulpickjXbwDodL77birdVUGGrlbDKXNa6zCHHcdd/uWmXDl23symW/D1CLDMdL2GfH2SsacxaIxrre11s6jDYaylzNZ0UzRYt4O5nvK8cixnEIReGqmaRro4kDxWfSbY41TPLmVj3A2uHWKvJySp/Z29TRviNyLtcSARzCxiwjTfbfbgtPS/KHXSOjgq6SlmYXAOzC17nmt8aykq6owQtMcuQPyB4c0gjgRy5LfDK/FRv8Ala/FP6Lqv8M/FcVFA58Wfo3FtzZwBI8V3eLwluFVR1/mz8Vq9mADhABAPnHQgFdPHx+5dM+TP25tyro2kmxt2FU6M20sV3kuGUlRpLTt14t0WJNsnBIc1PM6M8ibhaZemyjPH1ONcYWEalunNUsOBXR1GyuJQgmNrZmjUWOq1NTRTU7rVNO+PtINvFY3CxrOSZMKxtuKm0BoudSd3YrgiBvY37FQROB1aq600GEnfYq60cjZRYwk2AU8paNRorRSrocWjULMo5WskvxIWFGxzxcGzRxKuAhpABv2hWitm25fXERlrHEk2FiVfw+e8wefNPM6haISOaNDdZbKm8NhppYnddb4ZeGdxb2qqA4ENOa9ruBusRr3MN2kkLXMqHRnzXE34HUK/HVMcLOuD7lf3Ip0v9bBmIub5riSO9brCtoHRN6KYl8RIuSdW2K5WQBwBaRrxCtsmfC64cd6i6pMfp6rT1sZYHMkD4nHR192iyTJdoLdQRp3LzfBsZdSSgFxdG76UZNx3j7F2WH4hFJGHRyB0T9xJ+ieSp1+lbbGxe8kry7DW3fWfpT16Y5wJ0IPOxXnGDszGsNv+9PW3FP2ilv6VeLexUyrLMXYVTotNxXbpzbYuQWVMqyui7E6PTcE0nsxMgTJpuWV0SoY+xNHZi5NNwVMnYFldGLKnR9ii4nZi5DyCdEFlZNFTJ2KNJ7MUsF1EsCyyw8lExm25NJ2xizQqGVZfRqhj7E0bYmTsQtWT0fYhYeSrpO2LlVMqych5Khj7E0bYxau7+SH8mKz/wBQf+wxcWY+xdp8kWmzVb/6g/8AYYuH1c1I6/T13SIi892CIiAiIgIiICIiAiIgIiICIiAiIgIiICIiAqKqog1O1X5LYl+jv+C8l2RfcPZlvfSw716ztX+S2J/o7/gV5VsqyKnpxO6UOc7+oTa2qy5crMPEa8Vky3XotHV0EWH9FM1rXEWtYXJXCY9LE+pMLQ0DMXC+/wBiy8Tea2Yy087YmAAWB3W3rVRUEr8QjlM0Tg0ahxFj3rDi5NXdi/JZd6Yj5pI90jhfheyuR4lUwtuyfdrZwus2TBTJK6QyxFztbBwsFAYLlBBLHOJ3hwIXbPVYuX2lG49KWDpooJb78zRdZFE6hxGWQNoGtcBqWm1/YrQwV1jkjzEC4ANyqR4fUQAPjY5hy6Ft9SCq5eoxzmrFpxXG7SYaSWTooHzwvYSDlcbK8cQrYB0cNYx4bwlbcrGwSjqoq+aSRpcS0kAjS9jZQdhFW5znyZnEuJ0BtZUns3xYi4W1vcOx2vpx0j6OnnPpB1j4LObtaGscyqwx5ufpAA2XNYTRuhr2STQSSRxm7mkEB2u5ZNdHPNVyT08ckbCRljaNAOKrceH+XSZhm3LcSwrEHZRGwOO8Pjtb2rGqKClnBFOyJzh6DhcFYEbK1hILQbEGzm2071jYk9tGIzU0gzPNwWOLTos+vn9c1bhl9Lz8PxGleZaZrxY743EEfuV4bSV8LRDiVKKlg0tKzW3erVNisdNSRzB0mp+gXkkcrq8NoXPOYGNzDoWyRgjxW+OfPh8+WVxRcNncUNw52HzHnqy/7lr6/ZaoawyQOiqYt4fGQTbtG9beGehqyTUUEQtqXxG1vYrFTHhUJJpqmene4HRtz4haz1V+MonHC34ajBqMsbNG95acwAHNMbpmxUxAkJI4XWdgsbKWrmklcZYxZwc8WuO5U2gqKJ9LIIwC8gkEbvFeTnlb6jtPh7OGpw9a5MkhpseHNd/sAHfg8wtcR55Fu1efZ2lpF+B4r0HYA22dYb/9o5e3x5XL5eRyzTt8JDdXPIL92p4K5XVLchjY67gDcLUPJaQWkg8SDZBKANSbnTnda3j87c85NTToYHXgY4G92pISHsPMlY+Hvz0ceouBYj2q/M6zWk8HAe9YWarol3iuXtpvuq8LhUsOPJW4nEOkbvykacUW2vXKpdA4EXB704XRKtyqXS+ipdNG0uahuGqXVTqEQpdUvoonQ6qhOitIptInQqN1S6oXdqnSlqpKpcKJOijdTpW1ZxUj5orLb+gf+yVi7D2/BLDrAD8UL99lfxU/6JrP8B/7JWNsMR+COHgkAiIaE9izzjTiu66A3ynKQCQQL815ji9diTqyUVM9P0jXFpLm6gX0AXpuZoGjm91wvHPlLw80WMTTljj1p/SNkBNmi1suml1x8vFc7PK+c3NI1QfOyORrmSSNs1xDg0EA30urAgnaLhjAMrwLytGp3cFz1DiZpM4DS5ruBO5Xn45IRZrA32qZjljNRnvPHxG5ZFMC0ZmNDactB6a/nEDsRoZTwMcZQ17WABzjcA313rQnGZiNw13Gyxp6x9Q7NLpYWAFwFOs8vFNZ5eK3k8xkBDq4OB3gAALW1Jswls9+5a8HiDu5lXqR0IkBns5g3i+8q2PHIicVxu9qR1lRFmEdTI0OFiA8gEciFeqcSlqacQvAyi1iTqmKyUslS00TAxgaAQOJWM1jTGXGVgI3NIuSrWY7by7nwu08pzXJ0aLAE/BdM6hMeEiJ9U9gne18bHW81gF8wPMklcrSWdOG3INjY9vBdLDR9JSxyVdQ4ZYc5bYksubADv8AcpTqT4a+rY2SKWoZD0bGERkOdYvadAbc7rV9JG2LI6IPkB+kTbTlZbWcSCinBlfM0gODgPom+48lpyy7rktB70FM8fGEewpmhJ+i8dzrqojF/wCcb4hULGgklwPcidJRhrpWhpcQTqCF1ey9BPR7StikN29EXeabgXHE8O5cmwATNLXWBI15arutkY5BjkrppmS5Y3NBBuSARY91r69imfKum5x9gGC1juIiPxWh2Vb/AKIaeOYrpNorfMNda380bW7wue2UF8HH98/Fdnpv9Ofn/wAt1GbaELIjc0cFZYOauMsvQrzWS2QW0JCq5zZG2kja8Hg4Aqy0jkptIVLIndjBq8BwurN30wief6zDb22WpqtjpAS6iqWyN4MkFvZddQHDcRdXGuNrABZZcWNaY8uU/rzyswysovNqKV4aNzgLj3LDZHc3cbcgV6o3RvnAEHgQCPetfW4NQV5vLTiNw/rM0Pgsrw3+N8fUfbzx97WAsByUcoa0EG5K6qt2QnYC6jmbKN4a/QhaGrw+opnFtTC+Ox3kEA9xWdwsbY8mNYLXZnWOgurjn30GjRw4lUfGWi41VrUHVR8Lzyuh5bxuOSvRPa4G51tuJWFm17lca6zSbi5CjZYy2VD4yQ03HI6rJZJFO217O43WpEhBNzdTa8XuCQexTM0dWZKHROvcgfuWzwfFTCXQvd+LcLOBO7tC1cVUHt6KcC24OVmdroTcHQ6gjkrdtfCvXfivS8OrWzQRlhAsLEA7+V1zOzkYfFWE8ax/wCxdnsVLKhjXus1xAIJ3arabHMElJWutoKx9r9oC348p23HPcLJYzDB2FRMPYfBbN0AHBQ6EX3Lr7MOrXdD2KnQm25bPoRbco9D2BT2R1a7oTyVOhPILZ9B2KnQjkp7I6tb0Gm5R6E8vctp0AVBBc2AJJ4J3kOjV9CbHRR6G28ELcS0MkcRkkblb26FWBCC24IIO5RM5l8Fws+Ws6A3VDAVtDBwsLqPQdgU7RpqzD2e5U6LsWzMGu4KJp+wJsawxdh8FTotNy2fQablDoNdyjcS13R9ioYwtkYDyUDB2Kdka4xdi6r5I/wAmq4csQk/YYtGYOwrefJJps5X/APqMn7DF5/rPiOz0v9dyiIvOdwiIgIiICIiAiIgIiICIiAiIgIiICIiAiIgKiqqINTtX+S2Jfo7/AILwqjnnp4rxuyhwLTre4J9y912q/JbErerv+C8z2Z2OpcSwmKslnkaZLjKHAC9+1TCOW628uOWRwubEXV1k4LwHONhyJF16BHsBhDRaSd1+JMg+Kg/ZLZqnP42oa4jQjpCT7lW6a43Tz90hzkskI7MxurkLat/nMkeANblxXcfM+yjCQyKaR39gON/crZ2Zw+d+ampsQDOADbD3qvWG3K09RiVIRNDM8A3aTe48FKKfEo3uM1W4MIJBuDe/ILsYtj6fJlcyoa06kOkaLfvVTsthLDeeVgAFrOlvZJjEW2xxYmrQ/NHVuBOtyQNFdZiGIsBviDzruABK6w0GzNMbyVEBsNbOJT5x2YgFopGacWx3UXDEkrnKatxNwcGVE1nEa5dFmNqcdD2gmR47G7x4Lew7TYLBpGZXjiAwAFQm2yot0NE954E2AUdMfpaZZNU2XaKR5/FSZSRYlv8ABXm4PjuKmOOogNgbtc4WA7CsobX1ziRS0TGjgSAbK2NoceqHECRsTd2gtZROLGXcTc7ZplxbH4o1nRuZTltuKlHsLVAkyTRNB4BY8dXik2smIOHMNKvxNmkF5q+W17XLrC/JastRfZsZKxpaKuNt9SL2utZieyTqd8UklbGGFwBNwSNVtmCnjbmM8sp5AkrFr6aKSSGQxvAJAIeRY68RdVuUWk18IS4FRw4VPlxSN5MfYCTbcuMoKN07Zadzmhrrhrnm1te1dhXsp/m6WBpiaCd7Tc+xcqaanExY2cANN733rPWPzGvatGMIqTPJHCQ/Jckg2FhvPau62HzN2fj1/rEG3YVzgFJTdMesHOQQA03vcLd7HyFuAR2NrOdbxXb6by4vUeI6WSc2sDqN6rFMHaEjsWuMoedDZSa8tIPI+K7tOL5bqjqXxC7XHQ3IK2nXY5qc381wtv0Wgp5A5oPFX85B3rLLCVfHO4unabtB56+5WmkCqlF+APs5rV0eJlgDJblp4jeFmRzxzVbJI3Xa5pbr2G657hZXRM5Yv1DnMZnZoQRpwIV1rg7S9iAParNVfq0hsdASFJhEkTCdLgWIUJ2upwWNT1HSOe2SwLX2B4HTRZPPs39iLKKoKoqHmpV2q4X1VsqQdpZUdxSIqHNQvqpEaqhCuzqhKpc2UrdipZWUrDxU/wCiay//AAH/ALJXmr6iWHDsPa2V7R1ZujXEBel4qB801f8AgP8A2SvMqoDqWH6f92b+5Zcnw14firfXJ9/WJP1iounc/SWR0jRwebj3qFggY12mmqzb7aTFaKPOZYHtbc6tuAtfTVDqd5LWtdfQhw0XTPo43AhzQblQ+bac74wq6S5yJplks6QMudSdLdy2jIML6MNcC421cDqT3LN+aqUm5YAUOEUp/q27imhr3U2FjcX/AKwRrcKYLdG93aXLYjBaU7wfFBglJfc7xTQ1mbC83+zuI71GtNFJSjq0HRSA7wb3C3LcCozvBHtVz5kogLFpPtTQ49rnMcC02cDvW6oa+n6OVkkr2Plys1PmgA77rbtwegB1hB7SVdZhlA3dAw96aGrxLEo20ktBQOM8Esge55bYuI3DsF1r4myutkw1psLagrq4oKeMWjiYB2AK6CwaAADsAU6HMxR1R3YVD7QVlRwVhFvm6lbfTcbreiRo3AeCqJWgbwmkbcs7Z2pfI512MDje3LuW4wmhqKIlz5A55Fri4IC2JnbzCtuqGgHcrTQpXukOHVIL3EGMkgnTeo7JkjCBbi8q1Vzh9FUNBFujd8Vc2ScwYSGF7Q4OJIuLj2Lp9PZMtubnm8W7B5q4LcLq2GnfrbmrjNxXob28/WlwG4CkLcyoAAjQjvUgCOKhC4CptcQrY3KTSeSqLweToTuUw7RWWlTbuTSF0OHM+xVe2OZmWSNrwRazgNVbB0Um6neq6TutLX7LUdSS+lJglOtjqCVzOJYJW0JJmgc6O+j2ag969FawH+sAe0qbYgWkOc3LxBFwfYssuOVvhzZY/LyFzAHWaQQTqqP0FuS9ExbZKirS6SmcKebfdv0Se0cFxGL4ZV4ZOYqyMgH6MgBsR3rnyxsdfHyzJrroHWCi5pBUcw5rNsvNfffewV+GYFvRSG7TuJ3grCzHeNFVr9NVMy0rYyGvdTVFwTYEELu/k7YZ8FqpNSTVuN/+lq8/e8vZZ2hG4816J8lwJ2eqbH/vTv2Wq+Oeqi4yx0joHa3CiICdw9yy3NdrYq3lPE+C2nJWNwWjTkDUBR6DsV4tPMoWm28qe9R0iyICdAAVU0pGrmgd5V1gINxe4OmizhT9NDmmIzWsBewVcuWxOPHLGtZRl2pLQOZKyqemgYWuBDnNN730WHUwSR5shdl/snRYGeRjrZ3A301TznPk1jg3dfGypBEsgAPAG1lhCgY2INZUAAbtL3WvklfILPJNuN1Rs7miwIPepxwzxniluN+Wb1GVoAErHNJFyRY27FJ1FYaG552WH84PbobG2o0VuXEZpP62W3JXkz+1bMGaaJxOgCi6jLb3A8VrW1tRG8kSuIJ1B3K+7E3PaBKwEdmhVv3imsKyOr3NgAe5RNMfRPgoRYk1jtI7C3E3V1uMRg2LQouWcJhggaV1j5pPsVOpvIvkt3rIGLxSG1g0A6Gyj1uRziWWcDuVfczW9vBYNDJ6IsrvyT3GAYgDwxGQf/Vik2SrL7hosTuI4KnyUk/MOIX3/OUl/wBVi5+fK2eW/DhI7dERcjoEREBERAREQEREBERAREQEREBERAREQEREBUVVRBqdqzbZbEj/AOXf8CvONmpdnocGidXT1TqjXMxriGjXgvR9q/yVxL9Hf8F89ySPjlIjc5tidxITrb8Jxyk+Xq7cbwKKK1Nh0k3a938ViT7VNjuKXBqZo4FwJK8z6/WN0E8o7pHfaourqknzpZD3uJ/eq+1kv3xd/UbZ4vYiMxQN5MYBb2layp2lxacHpK+Sx4A6e5cf1qQm5LvFOtycz+sU9s9x0UmIVcpu6eV3/UQrRMjz5xce938VoxWSDc5w/wCop1yT0n/rlT0R7lbxsIJu4C/aSVdZC3iFz3XZvTf+uUFdON0j/wBYp1R2rqoIoxvBPsWawC1mtI01JC4oYjUjdPIP+s/anzjVHfPKf/cP2q3VG3exZmi5ka3kBvU31ccI1kBuNw5rz75wqP8AjS/WH7UNdO7fI/vzlOpt6Ph1Q15fM8Zo2kNaQdCToO9arFcUkr6uSnbI1kEZsA0cbcea49uJVTGhrJ5GtBvYPNr+Kg2slBJDn3JuTmOpUdEzJ6FBjnR0sUL3yeYLAtYLd6xqzGhLoBKbbyQDdcP16b/iP/XP2qnXJTpmff8AvFV9tPd0staHEh7X5Tu0GqwZnB7rgOHIXt71q+nkLbueR3uKh1iQbnE/9RVvaqO9Z7mNaHEg3seN10ezdS2PB443Pa3ziSCQCFxoneSBqDfmtnRUctTAJBPlGosS4/vXRw42Xwy5LLPLs21Mdyekb+sFeZVwnR0jf1guNGFTkaVQ9/2qQwicjSpbbud9q6f3+nN1w+3bx1cTDds7Lci4LMjxCne2xmYD2uH2rz9uCVB3VI8HfapHAaobqlpv2O+1R+/0dMft35qoA02mZe3pBVp8Rip52ubMwtaTpmGtwvPfmOo1/lLfByDBKgn/AGpu+3FNZ35hMcY9cpsco6wSRmRjLNJJc4Abu9ZNJXUppmXqIgQLWLxz7144/AKlguatgvyuFaODzk2NU3vGYLO8WTTeL2SKspBU1LXVERBcCDnFjpzurgxOljlZE+ojcHA5X5x4HVeL/M89rmqbrv8ApKvzROf+9NFtBfMVX2s/o7Y/b23r1J6xF+uPtVevUtv9qi/XH2rxD5nn9ab4H7VX5om9Zb4H7VPtZ/R2x+3tnXaW3+0xfrj7U67S+sRfrj7V4l80Test8D9qr80Test8D9qn2szti9r65S+sRfrj7U65S2/2iL9cfavFPmecC/WB4H7VT5pn9Zb4H7U9vP6RvF7Ua2lv/tMX64+1DW0t/wDaIv1x9q8U+aZvWG+B+1V+aZ/WR4H7VPt5q3q9fxSspnYVVgVERJheAA4a+ae1ebVZJosOI3dWatQ7CZw1xNQ0gAm1jr71epX4tU0sTmU7KhjGhjHOa64aL6Ag2tdZ5ceW18LjJ8sjgqg20UOr4wf93Ra/+G77VOOhxx/0MMjP/tv+1U6WfK8zhc80DipGhx5pscLYSdw6N32q6MI2lLQRgzdf/Cf9qi46+VpnL8LOZM6v/M+0o1+Zm6f+E/7U+adpbX+Zm/VP+1NQ7VZzlUzuHFX/AJp2l/Mzfqn/AGp80bSj/czfqn/amojdWhM6x1QTHmVcdhe0bQScIYLc43/aoHD9oANcLjF9NY3/AGp1OynTO5p0rliSS4lDL0b6Sna8bwWvv8VcZ86vbmbQ05bzDXkfFOp2X+mdfehmJ4rHkZi7mZRRRNJ3FrX3HiVYNJjQFyx3dkOqdKd4zukdY6qnSOItda/q+N6/iHfqBUMGNAawOHewJ0p2jYZjzKE33la4Q4yTYROv2NCr0GMkXEbyCbAho3p0p2jNlcOrVGo/m3ce1c7E8tPmSFrgdwJBWzfBjIa5ro5LWOYZRoLa3V/CNnG4lQ9YMrmuLiCALq+OGXxC3H+sSnxXEKf+aqXEcnG4W2ptrahgAqaZsoAtduh71cbsY0AWqnDsygqQ2O/80f1Qt8ePljLKcdZdLtRh8xAm6SFxOtxcLcUtZS1Lb09RG+/AOAPgubk2Pc2N7hWXDQTYjfYLX0WCPnlaIqghxvYAWJtw9qv7meN1Wd4McpuO9a0jUgqYsuWooayD8U7FZ6dwNrPiBHiVnsosQlGZmOFw5iMLWZ2sLw1vWWtqpgN4Gy0Yw7FQLnGH/VBV+b8UJt88v+qCtvJX2W+AFjqEAA4rnn0mKsMYOMyecbfzYU+o4rfXGpPqwo3ke06AEWOoVW+3xXPmgxYg5cbffheIWVl9Njsdy7FJHgDTJGLqLcvpacW3UA2FwVSeCGsgMFTE2aM6ZSLnXiCuSpTikzX9LjMkL2nRrohchVhbilTE8sxiUsByk9GFS5b/AItjw5S+K0u0+DQYRV5aaobJE4kiPc5h7VoDv0Fl1NXs5LUVBcK8yucdXOaAtVWYQaORjZZXOzmxIaTp2Lkyxu9u3CWTy1fnE20uliukh2dw6dt48WFxa7SyxB5aq8dkoGi5xBw7TEApx4sqXPTmWgk2IJ00XpPyWgHZ6ptr/KnH/wCrVzp2OiLOkbXOcLXByC2ihszQVb8MLqXEqimYXuuyI6Eiwue3TcntZSovJjJt6o6w5XUbX0sFwbMJxGQ/07Wn2/xWZS7PYpOXZdoK1paLkC5PxUXDKKY8mFdhlOnm92ikWEaEgE8CFyf4N4mHhrdpq0k8CTv8VsGbD4i9gc7aeuDiNRb+KpbcflpJjl8N+2MBwJIt3Kcj4wy193IrnjsNiNrfhTXadn8VQbCYgQQdqK7fy/iq9trSaZ8z5A6wF2k33rEnZmNwFbOwVcRrtPXeH8VQ7A1ttdpq0+z+K1x5ZGeXHag9gDTzWM64O9Tl2GqmC34RVpPd/FYsmx1Uwa49Vk35H7V0Y80YZYKvvc66q2SRvuudrqaogrXU8OJ1coB85xOnxWRT4PVSRZ34nUtJ4cbK2PPNovF43tuC433qJLiCQ0252Ws+Z6oHzcWqj2/5Kq/CqtrbfO9UdNR/kq/vK+3/ANbDMQeN+5SY1ztSDbuWpbhNQTc4pUgjsVDh1U0aYtVaDn/FR7v/AA9ufba5xGdGEkc1dZiM0f0AG6cQtEMOqXHXE6oWIBJO6/tUW4dO4EnEqka2AOl+3eo9z7iemviump8WnBtJZ5O4hbL5J3ZsAxA88SkP/wBGLixhVQ55Y3EqiwFw4kWPZddl8kemzVaCSSMQfe4t/UYuXnsvw6OKWfLukRFyugREQEREBERAREQEREBERAREQEREBERAREQFRVVEGp2s/JbEv0d/wK+eagfjnW719DbV/ktiX6O/4FeJw7OVFXStqYZY3Zxo1wsRrwK148blfCmeUxnloSABqoEAnUhbeo2exOAEmmc4W1MZzfBa2WnlhdllifGeTmkX8VpcMp/FZljfirVhyTIDu0VR2KTRe/FV0utGM8Colh5LIt7lSyjrDbHseKosgtB3gKhjHAKOqdrCrZXOiKoWOHBNG0LdiKpBCKNJRVVW/YiaBXQWsbe9yVasRuBRWiEnOLjvUbFFUX5qRJh88X1XT4Ky+HtPaVzLL5hu3rrdn2Xwxmn9Z3xXRweMmHN/lkNBB3K/CWnRwOumgUxATuAKkyFwNgF3uSRmQU7Qy4FwqtgBluBosmlywQfjLEkaBY76g3JYLBZ78royQtDsrRc8bKD4oofOkIzcAFQzyOJDBcnS6kykkkIL3E3KDElcZCdDYcFbfA5oubgHWxC30OFtYM5IJtcBRdTRsJkks47gDpb2J2iOtaRsDnECx17FB8eVxF9y2kmZxIYAOR7FaZSA/Sdv1NtVbsjTAyHkfBVbGSbAE+xbRtNG0aEE9qo5sTBqRfsTcNNd0ZB3ajhZV6ENGZ9wCsl8zQCI2gnmQrDg95u4E+4JtK083FgNOFlDKr4YToBdHQuA1topVY+UJZXcqrlROlh4/Fu7j8FnbLEDBIxzc74rFlbaJ+nA/BZOzAvgsX953xWWXnIy/wAt9TOjzND9bb1uaeSjgie1rnPvqBbd3FaOGN8jsrBreyzoIA0jpQ4300OhWWeO1MMv43eH0/TzCV5IbbzRwK3Isxtrbty1tPK2FjIo2kaaEm47rqEkxheQ+bM13AG5B5LiyxuVduGUxjatcHX1v4KQsNLLXw1rRHbQW0HasqCUSRh2mp0WdxsazOVeBBVuV1hv9ytSztDrZiCOXFWX1BGmhFr6nepxxqLnFuoOm4arT4tUGmoppw0HK02APGy2EzgRdhsb6g7lotoC6TCZ2tBD2tvYbza62k8Ofe65CjgfXVbpHtJe9xN99hdb9lMQ1scYIaNCSNLquxEcM0Mkr3m4JaAbGw4rpZoKaVgp7tbxDm7yeRVMbZWmUlnhzDoRGSHi54EFY79SQNy2WKUfU5Q0SBxcLgcVryx2RzgCQDqQNy6MLthdyrJFtASoNAJAcSQTopki/wBitOIdcaFpOtjqTwAKvpG1wQhxLYczgHagDU34LYUuBsnicYaxsTmauL2kBvsO89qxqB56z0b5+hDm3fLocoHAdq6mOQinjdmgqYCLMYAMzzzNlhnbi1wxl+Whqdn5oqOao6eIRGN13Ei7iAdAO1c7spM2PCsjyR+McLnde+i7yuY35vmdW4dd2R3QtjNwNDwHJcDswGnCcr23AlcbctSr+nyty8r54zr4b3OLXsTxQzAC+U6aq00s3hp0FhoVLMMp83gvSt8MJEpJgaWSzbXad57Fo8GOWuaQd17LaSVURhlaLB1iLHuWtwx7Y6priBYA6964uW7zjfD/ADW9fISLOyG/9m5WDT0jTFKWu6N5do5pOnbZZTaljtGuaL8TwVmndLAzK58crC4kuG8LosjKLkbKiNgDKsuPJ7b39qr09U0fjIi+3FmlldD7i4kbqpB2msg9gU6+qeGHUVMZfCZHPjyuuS5pt4rMD2yNJZIHjS1jqrdXkfTuDpAQdLEDVW+o08zgGvMb8osWmwHaq22JklZdnAWIcCRpqoWf0txnAtuvZY0dPLThzRXPeL3GYX9ncklRLEQXND7kAFuhUzLc2i46ZL2GRpDmBwtrca+KxoKO8JEJdGCSCGnRH4jExhdJHKwgWu4G1+9WYMQpjAAJDvJOtrKLcamS/wASfBUUdBJkyyZbkG9yPYsGrja+OhexweLk3PE31BWc7E6QNtI45SLHXetHLW07JYw0l3ROJcADYAnQhYcnXXhpjtsZ6GOR08YY2N5IcSNCDbQjsUohVwOYIJWyRlpDg/mFifO9G8uMkb3ueLXBsQFHr8QytYXAMNy1w1I71Eyxk8VNxv8AWYytb0RZLE+nLiRmFyCeXZdQ2UNsFbZxN3usd1xcrHdiMbWOzRtcA42sb6Eb1f2UN8GYQLAvcbctdVbHLeTHlmsG+gkMZva9jdbWLE3BtmRtbcAEgLUQta4+c7KL7zwWyhEbLOjc143EkKc5HNhdN3hUPSATyecTzFrLZ9PHZwa4eaNRyWphq2sjja1zQ21iANbqlRUQxyBzA4yN3k7j9q4rhbXbjnMY3MLw8Fw3c1cWmp60taS4XB1teyzaapbku5wGY3F+SpcLGmPJKyy4DeQoPcLaEdyx5qkAXAuDpdY76i1iComFMuSfCtRIDcG4PI6XWpxWYQ0U7w4jK028Cs6aYP0eLciFq8Rje+jkiJuHtIB7eS3xnhz3Ly43CKN1bVkZw7MS5xvuF9y6M4fIyHpHtDY2aA81r9jJGQz1LahgDmEtu4btV1PzhA82aA5h0cHWtdZzcrbUsc9IGMJLDfTW4WI8lzjyC32MUsQi6SmiJadXFptl71pMmZjnF4aRuB3nsC6MbLHPlLKsHib2Hao5g0EkjQXJ5KZu03tfkTuVoXc8Ef1TYaXDiefctNIX4o+suIAjta4LjbTmVvqHC4nwF1VSMmhcNHRusXkcLcAueppI2TNdIc0TTZ4Btc8l0UeI0MdMypBkp5WkNYwnzWjmQsOXtJ4a8Uxt8py4dh8MTZZaOZswNmQtBNhwJHJWfknA+YMQAFrYlJ+yxbOnklicGxYgyeecZsr7WYDx9nJa75Kw4YHiQeQXfOctyBYE5WLnyts8unGT+O2REVFhERAREQEREBERAREQEREBERAREQEREBERAVFVUQanaz8lsS/R3/Bec4F/RMHcfivRtq/yUxP9Hf8ABed4A2+DwHsPxXZ6T/Tk9V/lntJGouCOKqWRyC0rWvB0IcL39yq1p5qQaeS9KyV5stnw19RgWGVIPSUcYJ4su0+1a6fYujkBNPUSxHgHAPA/eumZYCxAVxrGkaGwWeXHhf40nNnPiuDqdi6+MXglhnHDUNJ8VqqrA8SpSeloZABxa3MPEL1RsYI4KYivxPusFjeDH+NcfU5f2PGjG5ps9paRwIsVXLpdevTYbT1DSJ6eKXtcwfHetZUbH4VPdzYnwOPGN2ngVleCxtj6mX5eZgX3a23qlrLtqvYGQ3NJWNdxDZGm9+Gq01XspjFIC51IZQN5iN9O4LK8eUbY8mF/rRWHGx9ig5oO4AK/NDPC/LNG+Mjg5pHxUWsBVdVpLFjoSdQVQxOGoFx2LLDQNEItu0UaW2wrOB3HwVQ7mAVm5QRrY+xRMLXbxbuU6Rti2aeYKq1h4aq+acHddQMLmncR3KYbQa0g3IIC7TZhwGFMJFxmdfxXH2eAQdQOYXb7JtacFYS0G73fFbcX+mXL/luGUzZGhzNCeCOgdGbFt79iuQvEd/N0+Cul5foB4rptrnY0kbnAEnssrZYGGxaCspzDe5JAHJSZSSzg9Cwu7SU7GmIx7WE3jBv2q42tdGwhkbR36rIOE1bXAdFod5uouw6RrSXua23C+9O0pqsR9XUPvd9geAVgmQ6lxPeVlGAg2IUTFbeFaaR5Y13cyqAyAaEhZPRnkEDDyUjHAe47ypspZJDqLDmdyvAWOjdVUukNxewUbAU0UQu68jxwGjR23VmXK513m9hYNaNArjgSDmcfYoFgG63tSJWXXO4W7t6gWk77q+WhUyqdoWcidH7FeAPJULSp2MeaMdC8gj6J+ClssQcHjBOmZ3xUpm2hkP8AZPwKjswx3zFE7K7LmdrY23nissrO6M/8twHEHzXEDsNllQzkMDS6xA3HUEd6whe2oPborgeSBcDTS4U2bc8umyirHl3nEi27VXjP0jc+TK0aEg3uf3LVNfa9yABqSdw71gnF56qV0OGNJAuDM/VoPYFlljI2w7V1ULjILfRa3UkHS32q8ysdmc5pIa0WAHILiKqjxJ8PRDEXEk3cQbXPILCfDi9Gy8c8ruN7krnyv/G+OP8A16LJUkhoJN7XuomZxbdpOYajvXEUW1clPUiDE2eaAAHjn28lv569sVG+pc7NG1ucEcRa6nHVitmUrPrauCkgE1XK2EO3FxFyewLQ1O1mHzOMfQzTA6EsadVz9PHV43Uvrql7jA4loJOgA4ALbxwQUrbRtbu3kalRj2tX1IxqWsdQ5xTU7xE9xcA82JvwC2NHinWGnonOa5puWOGt+7fZc3tDXvgliZGQbecb6FVoqxlawOY7JUMG8G1+QI5dqr4mWqvJubjtGVorInwzOa8280uFg08geC100bmAxhwDhqWk6EcxzXNz43VxTGGOnAIBBvx7e5bCgxI1QLKmJ8cjRqx27vBV8MpvwpcbpekJF2k2PEjeBzVBxsAXHcDpYcyjg0uzNJLCb67x9qpYk5bkuJ1I0LQt4ySa1ltXFrIjvP8AWJ3hZdJKyR2ara4tB/EiIm9x2BY0DosxdKwSQgEEE3JI7luMMhgc4VUVUIpBoWEWA5AA6681nnrTTDe1+qqI4aKSqNZOZZInNs7QEWIAAO5cXs04fNpuRcyONr8yvQqmCVtJVy4tSMfeJ2SRtiGCxtody822faHURLRYGR2u4gXKy4cpMm+U3HQQtbJKGE2BGhAKy20cO4yOPZlK1NOXMkDgXjLutqXDkss4i+MgGSY3FgMm4rpz5L/FccIvT4fTNhe9upAJvlHJafComy1jY5LhuU7t41WTBWztpJWPke7MTqWEC3K6xsLkMNWHgXJbzsN/NcuV3lK0xmo3nzdTA7pj7lJlHAw2bHMQeJKCtdezmO0GtnDRUFc3MQWyd4Nwt5nVOq6KaImwjebczZVdBGxpc6FwAFyS7crUdXFm3uBPAqrKyF0r489yy1wTobp3v2jrFmRsFTT3FO4C9tTYntClTmSOVoytLBYAE6hSqXM6OzC23CxCsMP4xoIBvbmp7eEaZM7nlx81o7FizPmAaQ1pAIJtqQLpO61QQQBoLb1BjrneD7FrhluaRYxscc51ILObYkXsfitGYDku50eXiQ6y2+NW6q0NAFzbUHetGaScghjQSSDqSFy8t1k1454Slp3NAyyMF9wuqwwua55MjSXCxIINlalo5pGhtjcb7Hiq0dPPSslbILlzdMywtrWRa6I5hbLa584G4KSwB5JMrAdBYusfBXvm2obYgNAGu/cqyYbI93SgA2A4qZaVbZC1sVhOwAC5N9PFbzZMkYMyxvaR/DfqtI3D5wHRktJOoF9V0OyNHO7Z1kzYnOYJHguvxBW3FlJl5c3qJvDw2rnZiCBYW3BX4nlrQHAkbwQeKxzG5gs5pFuB0Ug82ABsAuzUyedPHyy45nB1ySRwF1lsnfI3MXAkbmnQhawOLWkuIAAuSdwHNa35xqcQndHR3hp23aZjvceIA/esspMW2G66hlVE0Hp52Ma3UlxA15apHitNNKXMqIjbRoDhp71ykuCwOi6M1ErrnM5ziSSexYc+ASRsJp5Ab8nEFYZbb44x6AakmNuoLTuIOiCYFpDiBmBHcvPosWxHBJ4xMHSQgWLXAkgdnaulhxKKooOuROuzKXGxvYgXsmNlVyxsZuJ4vSYZBeolDpSPNjZq4jnb965921OIVD7UdC1zb2BkNwRyK1mH0k+MTy4nUucIc5aLneAdLLb5Y4WARCwGnaom7V/EjCmlq43OqCY6YyEXazUA9qvU2IPMoirGta5wGV7TYP7FqNpKh7I4msJGY3urOFYiyoYaaq38DxJ534EcuKrbrJeTeLs6StLHubIXFpFi4HUDsvx7VZqGw5nESEgm+dotY8iP3rlaqoxKOZkULrtsQ0gXzDvWZhtXWNeI61pdp5sg104ghWxs2pcbpmy2aSA4a7zwI4qliBYAtcRoRrYI94e7MGhpOrmg3Bt28FEAk2BIc7eDyXRGSQLLFzxdjCCAN5P71lYc+VtTna3pnvByxuBsB+5Y8Mojm6RgLQywykXBK2lHNQOvLXNdFMCCHNNrjgAqZ3UXwkbCQupqVhmw4CoJuC27ye3nYKPyTnNgGInTXEpN39xi2VLFLRsdXOqoqiJ9iQ4glo4Bp3XWu+SpwfgWIvAIDsTlsOXmsXFlduvGadsiIqLiIiAiIgIiICIiAiIgIiICIiAiIgIiICIiAqKqog1O1n5LYn+jP+BXn2z4/wBDU/cfivQdq/yWxL9Hf8F59s+T8zwdx+K6/R/6cnqv8tm0DkrjQLblaB0Ug4r1HmLoA5K42w0VoOPIqTSqJXgBvBKm29laa7RTD+1QlcBcOCkHm2/3K2H6apftUaSmHHsUsxA0KtZimYppCcscE4tUQRSjjmYCfctZVbLYLV3c6k6Jx4xm3uWwzFVzlUuEq8zyn9crV7AwOuaKtcy+5sguB7VpavY3F6UFzImTtHGJwuR3b16IHFSDjvuR7lS8MaTnyny8hnoqimcW1FPJER6bTbxVq1xcG/cvYnNbILSMa4HQhwv+5a2r2cwisN5KJrHE6uiu0n9yzvDW09RL8vMA0k2sQrjYb712tTsPHvoqst4hsovbsuFp6vZTFqcFwp2zNHGE5iR2g6ql47Gk5ca0UzWtieA0XA3ldZse1xwSMkXHSO+K5isZJAx8csb43Aate0i3iut2LP8AoGPd/OO+KnDxktlZcW8hDQ0gx69qq5gJ3W7ldY0ncL9ykWX3grW3yz0txsA4XV9oc0WaXC/AFWgMuoJUwXHdqlFzp3BpDnOHYoNIeDdhcmUk3LdQpgSAGwAVfEFp9JG4EkFvYrMlKwCzX37FfcHE6k+xOjB0NweamVGmEafXTVQdCRwPgt1SCnjN5ASQVkVNRTvZlbE0ciAo93zpaYbc50RNyGkgb7BRLCTuK3IcwNIsRfSwF1ZfGDqwjtBCm8snymce/hqjGeR8FExnktoKcEXfI0A9qdXjDSAQ6+43T8jD7PZy+mpyE8AqZLDctg6FoJ84X7FbdG0HU271Pv4faPay+mEGdhQsvuCyZOjYLlwN+AWNJMQQI4ye06LPL1fHj/V8fT8mS1M0CCQ8mn4Fb/YJ1K3YmDrLQQJX303nMbLnaiaoMMhbG0MykHwXSfJ9TNqdiYWvIDTJIQeIOYrDLnx5buVplw5cc1WVieHwzB8sRaywu1oO9aE3aCHaa6nhot1idEMPgfUTVLxGy5LjoABrv3LQRw1mLuEga+GjcfpOFnS24gcAujDkmM+XHeO5X4WamV1cDTU4JBPnOHEcQCsqCnFFG1r4wyw81oFiO0rc09HSYVAXlouALXFyStDV1D6uuJDi4E2AHDkqzPvV7hMJpLpruJtYXVRMCRmNxfvWJISxxadSN4BvYqw+pbG3M97Wg7iSBfuV7qfKklvw2VXQUmJ00jZImgtF87Ray1NA2R2EV2GTy5zEDlcDc21sFt8PeW4bUVD5AIiCQb77DgtHhZd1GurX3HTOOS44BZSS26a3eptlYJVyx0pw+pyjovOjAFrg8b8VkySaEHnoeSxGAGpgkA3tLSe4XV54u/KASSbAc1fDxFcvlqcfpzPEJGNBcw6k8QuejmdSTiRpcLG1hv7brt62Ex6TMLLgAG2i5XGKIRubIw5mPJud1jwWXJP7GvHf5W4w+pZVtbKGtdIBc6XuBvWUXFjRK0BzCbXPvBXHYfWyUVUHB1gDZwvuP2c12VO4YhS9PRgZrfjoSdL8wqY5LZY/TNjjjq4g+BxztF3sJ1sOXMLHJcQGuBDnm1wNQAta2sdTV74hG4hlibGzm9oC3tPiERb1g5XSS2a12mV3CxHA9q0mf8UuG/LGsXODAPNYMwcNxI5rZ4PHBV1BNXG90IF2uadxHEgclCqjgYGtoo8szhnmhcdCN9weSxZagB3R0LRBLa7mk6W4j2rS/vGc/Stri1T09JI2gqy+lhDhkeb5jY63XF4BK0YbldZpL3a9t1uqysLIHAsZHK9hAaDYHQ3K1+y+x1VjWF9egxBkGaRwMbmk6gquMnHfLbC3OM6kkZCRIJA4g31OgK2LW1tc38Q2mkA0BbICQT2K035PKlmrq6N2moDSqDYqeB4fHUBjwQQ5pIGnGytlZl8LT9UnYVisFJLnhY5rQXElw0Ft61mDQST1YjiY1z3NIIJ0Buuiip8ZZBJS1EkdXG6OwkvZwPJarCYJKHEY21bTE5xIaSDY3OgvuWOWNlXmUsbb5rqyP9mYbix85ROEVYGlO1vD6QNler8Tp4GSwfODaee2ji3MWHhcK9hNQZ6AEV7KxzSQ6RgsCpuekSMIYPV2I6NgNt5cBZQbgVaJHkiG7rbnC5stnI2WKCeSomMzWtLmtIsBYE7+K5/ZHHp8bq6lk8MbBDq0x3B324qLlFtM5+zuIP8AoiMAHmsymwWrbTdDVxxSa6OabEBYOJbRR4fisVFJC+d0pAEodYN1tuXRU0jugbZ1wQDe973Udk6c5U7M1rS+U1TYomi5LjuHatZHBFCXZccpHEm1i7S67TEoXYjhU9EJjF0zQC4C5A3FcW75M3HSHEmG5J89m+/crY56UuLFxKCWWINjnp5wDc5HD7VjtkyWL2AWGoB5LOHyb4vE69PXU+/TUhZ1NsDjBFqivgbbiLlWyuGXnZO08NRTvY0HMD5xvoL6KNQ5hmFgdLEgrovwKr4BpVxzADi0j2LArcDqYZoQRma8hry0WDdbXWNx38L7YDqhocGtaS0jU21BSkq6NsOWaGV5JOoBst+7ZGRxBZWtbcAgZblQOydRDFrikTWC5uWp1qduemc17g+EObv0O+3auw+Tiojh2HY6RhcBI8kAX/rLWybJz5RIcWi1FwQ21+5bT5NacP2Pja83aZZA4W3+doezmnhTL4bKvjpa673FrC5vmgEXvwXOPY6MkONmgk3PIcVvMTwyGkhlqHPeI23cXA2DR7VzbIKrGDmjD46Mutmdo6W3Icl1YZ44z5cWXHcr8LMkrq1xpoGucwaOO6/MLNZS9QiaJGhpt5rN1hzK29NSUuGQF4aAABvFyStFX1Jq67M0kgmwFtyrMu9XuEwxDKS8ngdyr01rX17FizXhkLXG5tew4KxNUxxC8rwwHi42ur6n9ZyW/DctbHXMkiliEjA25va405rS4VE2kqsQw1shdC5hc1vo71ssEcySGapErTFlIBG7dzWnwkOmnxHEXAhrgWR6bwN5HNZ6nbw11Zj5SwaSWhldSSOJhkBdGLaXus6R51N9LrDhIf1eQC+UgE8rgrIlADrAk33KcZqVXObYOMQGro3MaAHtN2k8FysodBLnALXNIFt1l3lZBJFE10rCGkaEDj2rmMao2hnTxi7Ro/uPFZ8mO5uNOPLXisrCa7rLGtJAeBpfh2e1bF1zG6Rm9ps5vEdvcuJimkpKgOaSC217HhwK7TDqhuK07HQFrapguRcAPA49qpjk0yxZ1K6GtjDC4Rz2uSdGvA4Hkrb45GudG6Nxe42y2ILRzC1U081NiIgEQJIJdE42JPYea3VHisZi6wSCW+bG5xBMZ4gjeR2rSZ6ZXDa1kLiI2jPG36QJsQefsWfgpbNVgyRRzQjQtJsRbiq1AgfCwQxshrJPOJBu144nvWLUVGcNhYxsFRaxLdBb7StLe8Zz9K3FdUUlW97KF76ZsBFmC4zEcwd4V75J7/MFfm3/ADjJft8xi52esfDFGZjGJSQ1h3AngSeK6H5JCTs7XFxBJxCS9v7jFz8mHWOjiy7V3KIiwbiIiAiIgIiICIiAiIgIiICIiAiIgIiICIiAqKqog1O1f5LYl+jv+C8+2eF8Gg7j8V6BtZ+SuJ/o7/gVwOz/APQ1P3H4rr9H/px+r/y2IaLbyqgaKoI5KQI5L1HnKC6k0nkqgix0VWkclXYqFW5S4VQRfcqpATfepA6JpyVRayBdL3KqALb1UAICqN6qACpBoG9QI9yZT2qQtfcqlwAIATYi1p7VcAKiHKoeOSgSG4oCQDYqmcHgqhwtuRLWbUta/ZyuL2tcWxOIJFyO7RaDY4huzzXONgJHEn2roNpjfZuv13wm3iuO2ZMj8Ia1pflDnE66XuuDn5Pa8vQ9Lh7mOnWsrYwNHHkNEdXxtkykPdpfMAbDvWoiiL2kNc8kHW2tlfbHI2IsaXOvvJ1suHL1uV+HoY+ljIkrZTcRzQAk2Bc0myo6uqIADUVtMQdwa2xWNG2XO0MLQONxvV2TB45XNnfGZDcXF9AsPyc581p7GP0zYcXgmfkaczgASL2v3K+KwuBLIwfasKHD4GuDi1kYHEHUrKaKcSsY2J7idxF7H2rLP1fJb4rTHhwnzE+sOAu5o15HcqdYcdwzX0FtVjVUVa5xMJZCwHQOFyVakGIRsaWTxN4Ekan2KcM+bP8AquU4sf4zX1ghF5y1g4XICtjE6UvytqG5ju4juWmlwyarkLnzte4gkgX19isHBZwwtidEHE6ElbT3ftlvj+dOmu5zc4NwdxIUQZib5WuHAhaSM4zRRZeiErANMhusiHHCBlrY3xPHADRc/JOb+1vhnxfTPdHK8kuivbX6VlbDWAkPLmkeib2Vp2M05aQ3NuvY7yFZp8TicXFzABuF96ykyadsb8Lz5443WBkdfjY39igZfxlxDn5ZjqFkx18T2EhjTbjZWZZ4SbvcATuA3qZaSyrUkkhOURsF9bjVY7py0kvaTbjdZTXRPacr93NY7nUMd2k5rG5uVM2i5SLFRUNfTSFrHnzTpexvYrZbH4oMI2Rgq6iUNgMjw0b3OOY6ADeT2c1rqmrouryFjAHZTYju3qGx2HRPoYq2oPSua5wijdcti11IG4ld/ppqVyeo/axvZJK3H521eLNdBRsIdDRA77ahzzxPILZOqBHETl0aLACwAHAAcVayucQXHK0C5I48gsOskjgaZJnEu3AA6DtK6sZty26WMUxHzBG0XkeNQTuHNYkTm0lMZZhdzwQBbXvCwp3OzmQhxDjcEj4K3LK6QgOJIAsAurHDUcuV3VJJdHuN3WuTY2J5LR4zGRTtfUMc6qqXZmtufMYNwtzW6AzTNjH0ibuvwA3+5aSWb5wxqWd2scQyMHu0VOW78RrxTU3WRg2JSN2dqqIyFxMgDcwOgOhAK6raBlPS7PMEDLOETSQNxJGq5GhpOjqoYGi4kmzEcwDddZj2ePBHB7QWktFzvCYY6x2ryZbyYmHEuw5rnNAcHW7QCFn0UHSVbA6zbWIJ4HgsHCrPiMYI+mCCV1UVBGGNlJAIA0HEqO2sUzHysV9I2rpejkzFwO8DguRr6MF01JO0NDtxvax4ELu53AROczeBquXxRj55S5rQXNFzbjxCphdzVXzmruPPayB8b3Ne2z4jkkFt5G4+0LJwTFZ8Pq2PY8kjQE7nDkQthjtP0bhVBpsQGyAje0mwPfdc9Kzo3kFxte7SOAWeU61rje0d9UU1PjVIKukcYp2C4eN7SNSCOIK1kL3tdkkAY8EhzRqHW4jtWqwLGJKSYuBJuLPbfRw7AunraOKuidW0rhcgBrhuB4hTjVbEKPEA0PdU+cB9FwvdttwPYsp0BhhNRUBpaRmEzTe44AlaVhLi2CQiOZt7jg7ksuGsdE8U8jOlp2nM+O97j+C1mWmeWO/lkiNtQJRXRWL2ExvJuAADa1ty6L5MgBsq0DS0zxe976rQVgjhoXPoS6Vj2ktYdSzQ3ut38mrnDZZumvSv+KnKzJPFOrsRuVHsa9trgEiwI4dqs5npmk4qJK2tjT1+H46x5fQ1NNM29wx0Ya4e3ita120DXfyvCxKL6FpFwurDncSQmdwO8HvV5nlGdxjjKvCa+YumhPRuJJLJYwSdN11c2Rw6XCqCeKsaGufIXWBuN+/+C619nb2hWHwRu4W7wrXWU8om4wHz0z7xvljIcCC0kajksajosIwwP6iyGEyO8+zgb8b34K5iWz9JXMPSMLTwcwkEdq5Sv2IrWvJocReW3+jITcKk4ZV5yRkT4S3F69tcyriibA45mv3mxvYd9l02HVdMaKMdMwOBIIJAvZcKdj8ZjYS6taLakAnUdqRbI4uWieKqa1o/qlxvpv0VMuOReXb0dsjXDzSCOw3V1rh2hedw4NtFSFkkeINAcd7joOVyuhw87RQ2FS6mmaeIeb2VOsn9S6mKQg2Bv3rIZNfetZBNIWjpow1wG8G4KyGzC+ihLPa8FWpaeKUWeN/NRjkBG8K6HAi6S2Is21Vdh1QYCKSqdE4XIcNfZbkuexyqxekpogJGEAESOcNCeC6rEaqopAHQ0UlSCN7HblpqrEKqsjdFPgMjo3CxDzvWmNlV1pGhxaikwxhqK2nEwaQQCNDbhqtRsZVuw/ZNtZNMyOlbK8uzOHm6kiw435BYGIYVE3NJT4KyJtiXZwdO1Y2yGHdbw+CorZDLTwvd0FOb5Qb7zzsearZpGXmOjlqqvaWZs1Yx9LhjDeKnJs+a24v7OIC2LZBHFoAGNGgaLBoHAc1bDXOaA2wA3ACwAHBY1U9kY6SR5DBoA07yqyK26ixiWJEQkWPSuPmjflHMhYNIW00L6qQAnUC4+kTyWJVPL5TIQ5zSdDbRWZJS9rWuPmtGgB0HaurHHUcty3VZJC9ziSTc3J4nsWmxVhFK6qqYx007ssLCT5oGl7LZ31aALucQABxHNanEZxWY02MG8dM0C19CeKpy3+RpxT+q7OYk+jw7EaYuIDmgtabkAnjfguxnjp6fZCENbaXoPOLdxN7klcUKXopHtaL9NK1gHMXC7PEA6HBJ7suwRhovuAKjDGybRyZbsjW4M50mHOL2gOAFhbhYrPpoTJMwO0sQb8tVg4QQYSxpAJaPiuqp6Bj4WyHzSAPanbWKeltKqmbNROglJebAA28T4Lkq+jENQ+nmb+LcOO6xGnhvXcuy9Gcmrmi3aVzGLg1DwLAvAJv2HUe7RU48t3S+U1NvPcQppIZXxvHnRG9/SadxVMLr5KKoa+NxbYgtN9xvu7luscgs1tUGm7LhwI3tO8HuXNzMyS6EgHUEcFTKda1xvaPQHMpdoaDNYsnBuXN0cwgaEcwStTG6aOToZi1k4Ni4DSUDcbcCtRguKy0dQHNcQWizhf6Q46c7Lq6umixKBtVTkBwjBBadx5Hkkqtmlqjrgx7hMA+EDQHQtI435LMEDnRGpmDZIjqJBvaBwPJaRhdpBMAyUHeRvHDxWVHWSU7WwZS+Nxu+O97jjb2LSZa8xncd/LMp2tqKq1XE10Uwyxvvo0bteXeum+SZobs9XtbawxGQC3LIxc9KIIaU1FGXOjfYNiIuWnsC6D5IrnZqtJ0viEmn/QxRy5donix6u6REXO6BERAREQEREBERAREQEREBERAREQEREBERAVFVUQanav8AJXE/0Z/wK4HZ0/6Fp+4/Fd9tX+SuJ/oz/guA2d/oan7j8V1+j/05PVf5bIEX3Kqo45Wk2JsL2G8oxwLQQCL62I1C9J5iYKmCOJVu5ulyp0LoIvxVQRwVqxGt7rGr8RpcOLetzZXOFw0C5tzsqrSW/DPvqLqQKx4Jo54WyxOzMeLg2sSO5XATzRFXEueat3PNSB1UCYcearmd2qN+xVup0lIE81UE81EEW3hSBA4hQJNGiqohw5hSDhfeoFRoFVoJRrmk62Us7QNAoI1u0rbbNV9+EJ19pXKbLVBZgzGZQbOcbgdvFdXtRIDs3XjdeEj3rlNlYHvwhjiWhpc7ee1eX66W4vV9DZ5bqGYscHNaHcwBe5WTFU5nkZQ5hGrgLEHkQqRTU8YF3ZSCAbC91k5ZJhmhgLWDXO8ZQe25Xjzjztel3xi1PHI9uaIta9ouGjW4UqYOZbrLiQRwPFW3GlgkLn1DnyHe2EWHdfcrRry24p4mxa/SJu4rbH0uV+VMuefxmvjaTm6ENYNQ5zrAqBq2NBAkL7HzWtFgPatfJK95zSvLu0n9ytGQ8NFvj6bGfLC8uVZ8tdI64bosV8jnG5cTfgrGYjW+9SbqdVvjjMfiM7lb8s7C256xrbk3aVBziHOFtziFkYC0uxICx0aVjVTC2plG6zjbxWGPJvlsXs/RUSuYbscWke1VdPHILVMDJO0ixWPm4FUJ4HxW9kqkJcNoql2aOYxvG5rtADw1WJNgU8BL2Skg6kgXB+xZBcL2uFKKplhN4pSy2vMeBWd4p/EzKxj0jJ6YOa8B8ZBNwdbrXyy1LZ79Vkay+jje59i34rYZDaqp2uPpxmzr81cbHFOQKSpY5w16KUBrvYTvWF4bLuNZyOZZPM6Wzg5oAJNwQCsCse5pc7zjmvwOi7SYPh82rpixvBwFwVj9HFMDkMWp3OABVd3H+J1Mv64U1MoaddONwV3Oxlzs9ATexc4k27Vj1OHkRSObFHbKbi3Ydyu7IEDAYwAw2e6/nWI87SwXTw3cZZyxvZpC13nkBo4ZSL21Wtr3xzOaXvaI2AmzXEEngNVsJIpzFdkLgLhpyyhwJ327QN5K02LVkEkQgjkJANyXRgXI3m44BdfHPLn5L4YFRMZHHMXZRuuL6LWV1RMx4ZEDlAJleBcDlY81mtbmdaMAngWm58FaqmmrroqBpBa0h8ubzSSDcC/atuTPrNRnx49r5YssktDgb6iZ+aaVuRh3EX3nwWPg9OWUrnuNjYvJIUdpanreJw0UWbooQGgEa34i3GyyKZhkfHSx75HNbe+4A6rDG23bfKajO2dbHNtBE6dxLYIi4AC93E6LZbWzufQMzRlofIADffY8li4QGuxPEJ4QA1rhG227Qa2Udp53vipoy4G77hdPX9NuW5b5JGVhbxHA55ANnC4O8hdNh075Ir3NiLgDWwC5TB2SCkmY+zndICNbaLqaF46gywFgBfWzRrx4lc+XnF0T/S7O4h4IudQSBr8FramgLZi8kNubgnUk8BbtC2MeZx0u5pO4ea23eUeQYejZKA4tIaIxc5mnTXuVJdLWbaOsw8VOFubJG8ljSSQwAOYdCfZqvPK2jkgnkpJNZIiXNN9C0/YvVHiR0L8tOWlhzNMz7ZmHQi3iVye1+HEQtrI3RCaAXLW65mnj22TLynHx4cQ1xDw5ujgbW5rpMBxo01onkvpnkEtO9hvvWhqmgFskZBa8X5WPFW4pTC/MBcHe07lVp8vRMRw+OuEtRGT00bQ5rwQBa17FaSjkBe5lQMsjTq7mAoYHiwhhdSSEGGUjI8k3BPAngt5i9CKilY5jGCYWEZaQbg77kcVaVnY1zJpYnPkaS0lpaA7RpBBXR/J/UPj2cAFrdK8+265SOV0cMsUwaHNBBe7UjTd/FdDsLPEzAA10kbXCR1wSARc6Kdpwnl2DayTS9ldbWni1asTxHdKw/wDUFJsjSQQ5pHYQVO2mo27KxpGrT32V0VETt5WobJyIPcpteTuCbqdRt2mJ3ED2qXQsdqCFp+kynUkHsKvMqZG6tcdOajtUdY2LqfTQrGfEWuIt7lFldIBqb+xG18bprP07eS0xzqtwg6BrgQQFYko7tIbuvuGi2rTDIwFrgb9tlQwg/RsneX5V62fDm6ilqmsyseBGBqCL8VranGKbC5GxzvfFfeHtJae47l2TobfSHtssSrwylq4nRVEDHtcCC1wBvfjdVyxxvwtLZ8uaj2wwO4vXAE6btPFZ9DtBheIS9HSVrJX2uGkkH2c1ye0nyeyQZ6rByJGgkmB2pA3kg7vYuGIdFKbB0UjDY2Fi0hZ2WLyyveGTBps4EX3aK82oBNrnTsXkOEbcYxhpbHK9tXCLAMlFyB2FdfQ/KFg08YNUZaV9vOa5uYX7LKFnbR1YaLEki1925S6w1/8AWPgFyg242cvpXkf+2VcG3GzgFxiG7hkKKt9UvY6B4NnAg3BAsRZcNsaQMEFyAOmfYWOhDjotxLtzs+5jmtrSbg6CMj3rTbFlzsAjc1srg6R5BaRr5xuSPcr78KZRvpJCBbO1rQASQTuKwsQ/HtawENYdXPDgdByWTK49FmPTHebujF7biey+4D2rX4pJE2m6Jpp3SuPnEXDhyHerYTdY55ajV1M2ZxjafMBsLi2nNa6sqXQ9G2FmeR5B3aNF96ySMrTmzNtqSNRZWsQzFkdNGxhqKk5XOZvDBv8Act88usY8ePa+WPSzTx0E1dUOBDbhhG6/C3tWBg0bpOknfYl5LiTyWTtPMyKCmw6nN8ou8gWI7CFSmvDTCJhs9zQwAC4JOlveueW5XddFnWeGXhUQq8eoYpngMaTI8kaaLoNpqlpwqYNaWg2bcGwPeFqcPgYzH5BGD/J4Wscf7R3rJ2mqHOwgRkAB0gubb9V0Y4/ptyZZfvIjg9mwl5BNmi4G/eupw2odIy4JyCwBPNclguZ0U7ZW2sBltrcLqsKc0UjS0ODt1gbuP2DvWF/y6ZvbIneWtDzYai9xvHdx0Wsq6KR82Zt2tdo0u0bzFr9mi2QcQ+wIaL2s3znaG3wKk+MGKxDWFxLQ6U3cHDUG3DQWVJdL3y0E1GypoJY3Brnt84ANvmadCFwFfRup55KVwJLbviJGpbxC9PE5kY9sZmle27w1jbAgizhfla65fazC3upW10MBY+Hzjd1yWngmXkx8OGY5zXXabPBvcdi6LZ/GTS5mvJNPIR0jd9jwIWjqWAASstlfqAOBG9QikML8wBLTo4KjR6JiGHx4gc0LiJAwOiLRoRbiVo6Z+eoMc12yg2Dr6WCrs7i4hDqedzyyVoDHZgMp5araYjh7JKETMjeJWjedOkPC3aFeVnYxaeeSGqa6EnzNGgi4cOK7T5JDfZ2vO4nEJCRy8xi4KkkcPxMzXF7TYAmw17V3nyQ/k1Wf+oSaf9DEzssTjNO6REWTQREQEREBERAREQEREBERAREQEREBERAREQFRVVEGp2s/JbEtbfyd+vsXmGCVuJ/NcQo8CrKqJoIEsTSWk31FwLL07awX2UxMf+Wf8CtL8mI/1Ngt/wAR/wAVfDO4XcZ5YTPxXM9dxv8A5YxD9R32J17HP+V8Q/Ud9i9Sy9ipZbfk5q/jYPL+v45/yviH6jvsVfnDG/8AlfEP1HfYvT7KuvIJ+TmfjYPLZMQx4xvEWzNe1xGjjG42PO1tbKww4m1v43ZGtmfcEvkjJJPh4W3L1nKLKmRR+RlUz0+DzAYljQbZuy2IC2gAjIAHgq/OeN/8r4h+o77F6dkFlTIFP5GSL6fD6eZ/OmN/8sYj+qfsT50xz/lbEf1XfYvTMgTJ2J+RkfjYfTzP52xv/lfEP1XfYq/O2N/8sYh+qfsXpWQX0HuQsNtwT8jI/Gwea/O+N/8ALGI/qn7FX53xr/ljEf1T9i9IydiZNNwT38j8bD6ebfO+Nj/+MYh+qfsVfnnGv+V8Q/Vd9i9H6PsQsAGoA5p7+R+Nh9POBjONf8rYh+q77E+ecaOn4L4h+o77F6C9wabNF0Y1ztTYBPfyPxsPp5ljWLYrNg9VFNs9WwRuYQ6R7TlaCd5NuC0uBVs1LQMjOG1k8ZJcDGS0EdhsvTtsW22SxO5/7B371odkyBs3R2AH4veAOathPev7M87OGfq07dpaiFtqPZ6aE+m5pe7vuQsWfGsTqHXnw6uf2ZbAewLuL9v+fBVBPP8Az4LX8bFh+VfpwYxOrG7CKsf+3f8AcnzpV20wir/U/gu+BN9/+fBVv2/58FH48Pyr9PP/AJzrCNcIq/1P4J85VX5orPq/4L0DXn/nwVb9v+fBPx4flX6efDEqq/8ARFZ+p/BTGKVY/wBzVh/6f4Lvr9v+fBVB7f8APgn48Pyr9OKw7aGsoakyjA6yS4sAW2src+NVc07pBglY3MbkZf4Luge3/Pgq37f8+CynpMJl2T+XlZrTz/51qyb/ADNWfq/wT50qz/uas/V/gvQL9v8AnwS55/58Fp7EPyr9PPTidbbTB6y9tLssPgrRxLEQLnBanTebH7q9Iv2/58FW/af8+xPZh+TXlbtoZWvLXULwRvBfYj2WVPwjkI1oSSP7ZFh4L0iuwjD8QbarpWPPBwABHbcLmsR2Hdcuw2oDhvEUgt7AVW8MXx55Wkg2zrqcZWU73M9CR2YW5Wtf3qVRtbFMy78G6OUjV7JsoJ7sp+Kwa/D63D3ltZTvj1sDbQ+1YbiS3iBu3XB7FS8UbY8m/hn/AIVVLYnxiB2Ugixfew8FssHbtDFhMHVqGlkgeC+MyOZfU79SCOwrl5LZXaDQarsqavFNg2HRl5aDTt0t3qnSY3wvu2KvftQ6MxigpGgtyDLI0EDmPO0J4rEFFtIAQaSnIIGhmbpr/eWacVBAylxJ3dqx58ZkjBAcM+8D7VaXXwjraxZIMcilZnoqRr3aNvM0E9o85Vhw/aCAySNoadzpTcvdK0kW4A5lhMq5H10c9RLmyuGlzYC/ALdjFi3MxhdIL6W0GoVMs/PlrjxePDSNwLFm1ZnNDGZHEuOaZt7nTTzlfhoccp5RIyigzgEAGVvH/qXQR1t4wTOy++zhcgq3JPG4lxqGuJ3hrCU7Yo6Zf2NVh9NtBSwOjpsPgLXOLiTICSTvv5ylWYVtJXOY6bD6cFhu0NmaP/yWe57y2zI5Dc6HIRfuV2mirnOuWvbyLnWCrly+NSk4pbvTXRU20lI45aGlNzch0rTfvs5ZcdZtYwHLh9JYagBzSB2iztCukpY3hgEkwabai4JV4tiabumcediAsvfk8NZxOU61tdISX0MBB01cLD/7KZxDa+xyUNNGb5vNLTY7vSXSl0YBsXOF92Y/BW3GIa5XE8BzUe9E+y5npdqS5r34fSuLbkFzmm4O8EZlGabaaSFsT8Moy0NLLty3I7fOXUMeRchuU7td4V9vSvAsQAN9wNye9E+y82/BrE8jmOw9lnOzECVp1/W0UBsnihNhhw7jM0f/AJL0styAuc9oHEmwV0xhwDgS4EAggixS800e08yZsvjMLS1uHsN+HTt+8tpHS7SRQxxmgp3CEktJlBO7eTm4LtzGMxNr2GqiY95cQG8hrdROaHsuErKTHawuklw+nHm2Ja5o4cRm961WG1hpqYxClkeA4/Rta/HVejVUYMEmTTzTe3cuNwPDjUYSZYtZGyOFjx1K6vTa5cnNz/8A4Zti/OjuFDMPapDFnjdRVA7isvoHNLgQQQdQd/hyTo78Pcu/8XFx/lVjDGpQdKapHtCm3aCrZ9GGqH/VdXTDru9ydBxsp/Fn2n8qjdqcQbo2KpPfqrse2OIsFjTTEdrQrYh7EEBJ0t4Kv4mJ+VWU3batH0qCRx7gE/DOrJJOHSeKx+gPIeCdA4f1dO5WnpcUflVsYtvJ2aHDJdBwKyY/lDkaPOwuoPtC0nQ8x7lXoT6IUfiYp/Lrft+UgD6WEVJPeFI/KSPzPU+IXO9CbfRHgnRdlvYp/ExPya3r/lEzXLcJqAeFyFxOL1M+IYpLVx0j4mvNw0tvZbjogOXgnRdii+llRPVWVzf8qaLmFw7SwIJ5he8QPfGF0E0VojoFq5WWcSdLclXL0mOl56q1idNKRcwCx49GE6V280rT25AtlTxEQghrBe+rjv8AYrhDmjWSNvcLqs9LNH5NanpHOBvSAjiQwDRbvZ3Hm0WGCnNBUzWc4vfE+wcSbgW4W0WM43BvUA6bg3eoYI0mleb3/GHX2BVnBO2l/etx26IbYzNiLWYfXAm5NyCC7hcch71qXYvPK4mbDp5LnQlovfiVda3W5JV+NjXcQD2laz02r4rP3O38YTcRc1wLcPqxYg2AuCoR10zcRfVz4dUucW5G5WgEDifBbyGlGW58VPoDnta47lXLg7fNTjnr4jkKps9ViLqualqXDNo0tFwAsqnqJIaqOZ+H1Dwx1w3KBfkulkpA0dhVsUZNySGga3OiTgn2m8v/ABqMOxGalkqZ5cNqpHzvuXEbhwFlHFsSkr4WRNw6pYGuBOnattUvaRljI0Fibb1jlpAvqe1WnDda2z7Y9t6Y1HjElM65w6qIsAbAA6cQtnBtcYWmNuD1fRnUgHUntPLsWIGFxtzRzC02N7qPxZ9r+7/xmfhhKSA3CKqNhBBygXKr+GDm3czBakyEtOZxBsRxHesHKUDTdPxZ9nvf8Zb9r53uu7DaxoDiQGEAWI1G5WZ9oYZoGxvwSscQSLufe7SNxChkJ3oIyTvsBzUfjT7T7tcy6mcTK1tJUBj3FzWlo81WPm6XW9PUG/8AYXXOaALAe1QI0Ufiw9+uZgpZ4mlpp6gjePN1BW+p8aqGUbKeajq5C11y8G2YDdod1leynmq2U/jRHvViVuIMqXmWPCqiJ7gA8ACxHO2+/aF3nyPfktV2BH8vfoeHmMXHAars/khFtmKv9Pf+wxc/PxTCeG3Hn2d0iIuVsIiICIiAiIgIiICIiAiIgIiICIiAiIgIiICoqqiDU7Vn/VXE/wBGf8CtN8luuxcH+I/4rcbW/knin6M/4Fab5LD/AKlQ/wCI/wCKn+I/rrrJZVuqXF7XHcqrKZQBcpa+5Y9VXU1GzNUTMbyFxdaWr2xw+AOLGufl3ncFaY2q3N0YAG9VsuMftvmGaGHzTuO9WqrazEhTvlpYI5Q0XI4gdyvOLJXvHcWCZQvJnfKTi7nODYImZTYgi9lKDbraOqP4ilEoO4sYSCntVPd6tZLC115ZHt/jDZuhfHGJbgZHC1jfdcrfwbU4zGAazCyWkXu08Oae1Tu7SwVCAAVz9FtZQ1Dg2drqd/Jw4rcNqYpGh8cgkaRoQQdfYqXGxMylXgRdMzRvICx3Tk7gFDpXk3KjS22S5+8NF76XVt73WLbe1WjNJbQgexRL3OGrj4KZDaliTrYJe+hdYd6gQeJuqW13lT4RtqtsXAbKYkL3/EO4960eyf5OUf8Ah/vW52v/ACVxL/Ad+9abZW/4O0emmT966/TTy4/VX9W3CqLKiBdrzkrDmqhRVWoJIqcVVQKpbVUVbG+pQVVVSw5qQA4kqqVAdVVSa1hP0vcp5GE6u9yjcTpbG9VurnRx8HHwUhCw73qvaJ6rF9VXvWQ2GMH+c8QrmSMDVwPcq3OJmDCljjmYY5mNkYRYhwBC53E9jKGpDn0bjTSG5IGrSeRHJdblh4BULGk6aKNyrztj8V5BjGzuI4YHOngLouEkYJbbtA3e1binpqKbDMNNRVPZK6nFgBpbVdvjrAMCrQ3X8S7Q2IJseC8zxOo6PCMOgja1t6dpL+JFjoFzcs+nf6fPtPK5iktFSHoqOV8rwbFx3LVGUlxLjcnW91YJDTvBvrfeVQOvvKpPh0+NrzpRa+8g3sts2VvQNe1trgcd60WYHRZ1LIXU4BsQDYi6pnPC/HfLNFW+M5muAINwDrrwXQYNtFSsPR4hAxrraTNbqewj965XMDazQR2a39qmxrnCwjIudCTuWNm42ekMnpatoMMZkBFw4iwHtUpGXiIYAAOWtlwmGYriOFvtCS6InzonOFiONjwXXYTitPicXmSGOUb4nixB5g8VyZy41pNHVI2OzPnecx0BNtVcEcDbkm4G8klXpYA4kOqAANNXaK10UVrPlc8HQ3JAHt4qnZOlt4dfPC5paNAACVdY0G2YhjjwItdWjBGT+JllaNxDdytS4TBUi8zXudwLnHTxSZQ0z5oo2tu+oawb7ggrFrqmjpaMzzYg4RgGzW2zE24BYpwGhbo+VgA3BzyfdxWJUbMYfOPNe97r3BY6wA5i43rTHr82q3blMWxaeulIa57ICTlaXEE8iTwWywLHp6drYpi+aFuhaDYgcxfetvJsZhhAEdRUsJHnF773KlT7I4fE8ls8j3aDVxC3y5OPrpnMct7bObG8Liom1BqyGvsADq4Hlberwr6PqQqnTsMJF8xOvhzViPDKGEXhpIQ5ugLmkm/PksgQxtbYxQknhkNvBc1uP8aeVOswVeHTy0cjJB0bgCCQQbHgtDsZC5+CZr69I7dxN1tq0iOhqMoZGejdoxgAOhXJ7K41Lh0GV7elpy45mgajXeOa9D0N1bp5/rcd4uulohMczWgSjgRoViup2SPyujyvGhFrXW6opaevpmz00oew6kAi7T2qctKJRrZsg3OtYHvXrzl18vHvHf40Jw1rtwVt+GPBuPBbkZ43GORtnA6abx2K60McLEW71f3VZhXOOoHi+l/Yo9TkG5q6Z1MHgkDS28KyaQjcfEKZzYlwy/jQdWcDqPcggO6y3nVHX1bcdgUTSAk6Ed4V/dxZ9MmlNMTqQoGA7gPBbzqgtqLq31YA2APgnuQ1k04gIO4qfRi1i0G+l7LaGltwCp1fuU94rvJqzTgjzQPaommcQbD3La9XHcpsp3W0cPaE7wlrQ1VO5sLrg252WknZZ5sbdvJdrWwHqrtx04BclVMIkNnAapLLG+FRooSYdIbgk3c429yv9C8A2jiHeVWiZG5h82SQ8dbBX+gbY2pXHvJUyeF7WE5kga4l0IsDoLK1s+zNRSEi56Ujs3BZroSAbUltN5O5Wdlg3qMoe3TpiLjeNAufLxm3w/wzehNt2ncjGEO0C2bKQObmjNxfihgDD5zde5X7I0uUMZMP43QczoovlYx5yi9uKq4O6KzQQFaEYB8++qj5qyLqhtySCTwAVt/TVA0blbwsrzGQtddwJ5LIjqIImkFjnck+Pg3GPDhj3avBItc6K4aEOOoDY2jXtVx2JyWyxxhoHNY8lTO8EFwF+AUTtTcQfHHG4hjcxG7RWerySOJLQL+5XM7r3trzVRK8bgreUKNotPOKn1RrQSSO8qPTSnc63sVLSyG3nOPC2ibqEXCJp1IcRwCsvfmFmtyt7As1lDYXmdlJ4WuVCWJt9wa0aa7z7ElSwS250QsIGoPgsghrdGj2qhJcLXsO5W2qxsiZVfyKvR67kGPlsuw+SI32arf/AFCT9hi5V0ZG+y6r5IhbZuu/9Qk/YYuH1fxHVwu5REXA6RERAREQEREBERAREQEREBERAREQEREBERAVFVUQajaz8k8Tv6s/4FaL5LyW7Gwjd+Mf8VvtrPyUxP8ARn/ArmNhKwUWwkUlrvL35R230Vscdq2yeXbZjvJsBqT2LS4vjogaYaQl0moJG+/YtYcVrZmFtQ/MCdA0Wt2XWCI3vqHyOBde2Ucu9azis+WOXNLdL1PQGpeKrFZSSTdrHH4hYm1bImUUdPTRsbmOpaNSO1ZBppJHXeHn2nQKMmHPkla52YtbbQq3WkzxW6FrcOwRvRwRyyu0JcBpdYNK8x17ZamZrXONnNNgLE7rHh2rddUkkZYMdYEEDgbLmse2axzFa6WqDY4o2ts1oJBsB8VabRuVHaPAGw1MeK0cYlha4OljadHC9za2/Ra+r26rW1dsLghpqZpFmFgJAtYgrN2MhxZskwrGyupgMmR19Te2l1fxTYwyVLpqaMhrtSOV+xTJKdpKxNqH0lZSU+LUssQlc0CZrCAQeJsFt9ltoW1dB0FXUMZNALBziAHN/fZaE7OxUxyzxOvfcHHf3LIp6Sggdc0oJ3akm6e1ke5i6SoqMKqTaeeEu3ZgTf3LHE0mHky4dWufHbVg107lgx4jQU4s2ghBHEgK8NqqaLdQx6DeEnHl/SZT5joqDadkmRlbBKwvsA9rSQD28ltHVrA3M1pLSLg8T7Fxf4aUQFn07m9gAICo7bqgaNM+nDLuVMuHL+NJn9u1jrY3j6JHsVzpQ4XaQO9cCdvqW9o4XuvxtvVDtw2UENpHkdlwq+zknvHfGRjRd0g05FWzVQX1lb4hefDF21U+ZzZo2HgCVnjKYukDpMh3EkrDkxzw8r45St1tbVwO2YxBjZAXGFwABFzvWs2UP+rlJ/c/etTjbozhNSA4n8Wd57VuNkrfg5R3/wCH+9dHo8+125fVzUbVFMBp0uNU6MX0I8V6O3m6RVQAp5O0Jk5EKNmkeKqq5SmU8ipBFSx5KttUC2qqqooSBV9pVFVQK37UubjUqiqN6jSdpZjfeq5zzUUUahtLOUDjzKig3po2xcbd/oSs/wAF3wK8yxGCZ9Bhro4nOHVmgkAnVelY5pglbcgDoXb+4rl8Is/D8OjdHKWdXaczG3sRdcXqcuk29L0WPfccWaaoLy0xPzAXtY38FQ01QBcwS2HHKV6nFQxOOaZhBNvOksCfYqzYUWtPQvY0HU3At4rg/K/49H2f+vLGUtW4+ZTynsLT9i2WGYZXPc8CleL20cCAuyr5xC8RPrYemAGVgYST4b1nU0IdAHzBjnGxADSCfZdVz9R4ThxarlqbAKkm5McWbcCL25rKh2fa0ETOe4k8AAF0rIdLAkBpFmgWVqRkhPmubruAGpXPeW1vMWDBg9OIw0wNI5k6lZMdNBALEsZbg1oJ7rqBZUOdZz7AHcFcEQaLOGa+4k8Vnbv+r6QfNBG4Bpa4E7ybHwAVw1DGkdHE1pP9Z2ov7VYdYA547AagjX2qBqKSN9pJxqNQW3AQVmrZmOykyEk7om7x2KEVQyUvLzK3LoTLoGntV2OupSy7JGuO4ECyx30kD56l00XStnsXAO09llMk/qLb/EmVbYqkRhsQYSA2QXAcTuAJ0WTLUmJ2V5a3NaxLhp7Vh1VHhPVGxVVJIYmkFo6QkA+zVKel2dhcXx00rXEAaPLreO5aSY6U3ky3Omc24kAFr6EFUYKkmwcDwsCLq9BRYeTmYZXB2lnm47li1FIYN0bwGvLszRYEd6p4T5UqJ20r2Mqp2xudqAXAE+xY3zvQ9IYy973DeGsJB8FZq4aR0zTJRmpcQbF4LiL9ylROMMnRxYfJCw6lzWlv7leddIu17phWUVQ+IODWsd5jmFptY81z2C4JX1OC9fpWdLHncC1uhFjqbdi62prGmgnibI9rnRObZwI3gjfZT+TZwGzLQbG0zweR1XZ6TKS3Ti9XjbJHMUFRUUEwkp3GGVps5p0B776Ls8HxylxANhnIhntYtJsHHmCszE8CosSGZ0YjltYSMHxC5TEsAraGZjspliB0ewkEd9ty9eZYck1/Xk3HLGu0mpBIzK8btzhvWC+nfE7K8b9xHELV4Rj8tNlirLyxDQP4t7F0hkgqaXpIXCRh1BBuQeSyyxyw8LTrl5YLA5trEjldX2tzjz2g9oUGHO/o7jNwHMK6xj2km25Vt0nGbVEVhYAEdqdEDvaFeY4gWICnYEHQKnar9YxDTtO4AK26madx9yzXNFjqoZe0FTMqi4RiGmbY6E+xQdTjLZsYHaVnXI00VcoO8Ke9R7cazqpIuRuUegIOi2gABNgFqat7nTkB7mgclphnazzxmMQngJpyDpe64zFWOZLZthqRcrsWtlDSRI53YVyuLMJqbGLNc63Nguvi+GG5vwUTT0QElU0XGjWgae1XntjA1qJPYFfw+OQRizKZgtpc6rLcyW2klOPBbbRa0z2QOBvJMdD3KxsjG1+HTEgkibTusFuHiUB16qmGh0AGq1mxgc7DJrDN/KDcgf2W7lzZ393Vxf5re05bGCLnfcK+54c2wAPsVYo2WOZmqqY2381tlFyi+lgtcBc2ACoIXyaMa6R3MA6LNjjFjmAPYrseaI3jJbfkLp2NNY+hqAbmF+vCxVPm+cgnoyABc3NluetSBtnSE94VsuEhN7nuVfcyOsaQwEEgt3clHojY6Lcuo2uuQSO9WpKQNFw8HsV5mjrGr6JU6LsWeYCOGig6K2lj4K3ZEjGaxo3i6mJS0EMaAOOm9XOjJ3AnuCoWi9rJuJ0sl0hBBNr8exWnMvv17ysksvuCiY9DoplGLkF1XIFfyXGgVMnYm0LGXsQjQq/k7ColnYp2ljlpOpXS/JH+Tdb+nv8A2WLRFgsVvvkl02drx/8A5CT9hi4fVXw34Y7hERcTpEREBERAREQEREBERAREQEREBERAREQEREBUVVRBqdqvyVxP9Hf8Fw2xri/ZSnYSAxr3EX713O1ZtsriZ/8ALP8AgV5hs7Umk2fjqCHObEHHKDoCDxWvFdM85uadkwxBxjdIxryLhpIBPsWIKiLD55I5HFz3EG5GgC5nBMFkxiOTGMQqHxGR56ElxAbY6e9SqKuYTSQVLrzQEC53ubwK3wzmWWnNnxXGbjqmYtARa58FGesjqYnRsnMZvvtvC5IVnb71KOtIO/3rfpGWsnc02IRxxMjMoNha5G8q+MSjt9NvuXCDEHE2uRbtU21777z4qvtRO8neNxCFo80RgX1AAF1StxKGGjc5xYxoBJcbAAWXFR1zi4ak681otsMYnq5YqCN5DdCQDZZ54TCbWw3ldN1U45glRO6OSscCT9INuLqfzdI1jaqlkZUQuIILNfYeStYNsxT0+HMlqYoxnG+UXLiVhyzT7LYzHJE8vw+fRzDeze0XWeHPd6aZ+n8bjp20FDV0Ac+DLKBYi1rlcjjOGupnF9KHCO93Ai5A42XVRVIc7pWOBieA4chdYmIPika5pc3UHeuzHy5plY4lzgKjKHBzCATfQ35LOo8KrJ4HVcDaep6I/jIBo4N4k89FeqaVozWaNeQ3hYYZNA4mB8jCd5abX5KbxW/FdGPLueY2YpZJKc1FLDRxRtNnMlIzMPHRQYJALvxGjiHJjAStfTvqIaqOUAy5Dqx5Nn663W3mxYucTRYLSwuIGZzzoDzsVnljcfG15d/DFaJ5JnBtdI+Fo3xxWJ7ls6Eingk/EVRjeQJJZb2b3clhtxeuDby1VBTN4hoBIUXY3SSgMrsUdOy4JYxtgTw3LDPzNLSX5XsYpjHhtUHSAkRkgX1IJ0W/2T/Juj/ufvWBizKGs2aq62FtyIiGm+6y2eyMYOzNEddWfvVPSTrbFPV+cY2Vj2qo0O8q7kb2qojab+cvQ7R5uqtAm29SDipmMA6JkB3KNw1VMyZiq9HbeDoq5W24osjc8bWVbhA0br6qoZ23UI0XHJU4oQRoQdVXXkpQFU4qtiqWQVVRvUVIb0SqiIoBAiqEQwccv8yVv+C63gVqMGdIdlaKMSmFroQBIwEuuSd2i3GN/wBCVm7+Zdv7itRs7PJHguG552NhELfNe4aHXdxC8z13+Xq+g+U6TBIHzB1ZJVVDhrmleQD7AsjEMKlrHRMbVy08bBYNidv5XVXVkck3RlrmNB0eBo4jkDqT3KkJkM7i0BnJ9737xwXjW3e3raYjqKPCnsM75JHu0bISC6/MXVx0k5GaldGbmxMrgHFSrYJagAyyhxbewI3rTz4O+V9zK5ovpa6tjd/KZNMwOrjNmkxBjCAQWNdpruWbTVEb3ATSiWVgsHAWFuS1UOC041c9xJIF7WuewrNZTx0rgGQvkLSLuJtlPAlLN/CZqfLIqXyZ2FrC8k7gQAO0qD6Y1AMjzmc0XDQ6wHerDpAXOFI6RshBuDGbE8td4WDHhuJmKVpqJnPfYtyNDQNd2qtjhfouUn9Yzcao4JiyOd8sp0EfBpB3LYMqjUwl00J84gC9mjXtKx4cAxTJ0j+mlc3VrXNY0DtuNVbko8bfMyMQFpOt5SC0dtytbx/Sszn9ZzIw2RgZSNAJ1JcLK+IAaqQvPRtaGkm+gFrXXP49W4hhUkFMJo5Zm2LntaQG3OgtxW5nxGRmLQROjaIcsYL7WJJFySO9PYutq3lm/DJlfRsj/nXv7mE+1YEk9PJM00sE4kJsXZSGnvuukqMKmnaDTlzLAOvDYEjfrdQ+b8YeA2CnZltYmR4GYdoVPbyi3uY/1rGTVzWFzBSZtAAdD4q2/E8UYcvUhKObZAB4LayYRUsY57zTCQW8xjgST3XVo4PWPbmbE5ruAsE6ZT+I743+tc3FK+N134cAAb5i46e5ZDMce4kSUoAAuSCSFedhuLRkENjPDznAWHt4qwabEB+Le2nDnmwZ0zTe+l9/uU9MqdsVKvEYJqKUOjbd7HNFiL3IICufJu+M7OdF0jC8SvJYSAQL77b1pJ6xlFVupJInxPzZXNljLRmPLSxXPYX0jWOfG97HB7jdpIsQV2+k47uxxerympXs+Vw3aE7r6KoIsWvAIO8EXC87w7aXFqNoBlE7BpllGtu9dFh219PUNDaunfC7cXN1Ht7F3Xhznw4JyS/LNxDAKeqvJT/ipTrpuK56d9fs/JexDCdb3LXDl2LsKWrpapuamnY/mAQCPYo4gyN8Jjnja9pBGour4Z5TxlFMsZreLlI8WbWTMlhJikaNRfQnsXRYbXdZiyyAB7RY9q5Grw2Jlc51GcoBBI5dy2WEVZirGwyNIuALldHJx43DcjDDOzJ1NwdyluB52WMHmxVWvLjcE3HBcOnX2X7ZhZUyEE2UGv5lTDxfeVVOwGx1CobHchcClwp0lEtWqqrNmOYgd62xOui5naOoMYLWgi+hK24cd5ac/N8MxjmvacjgbcjdcrjQaJxma467hfVbfAnHonXJN9bXstRjrwJTeUM13AXXbhOt05v/ALMjDmtLBloXyEjiTZZb2af0YT2XGq11BJEWjPXStNuAWY6SlI1xKce0q9KhJG6zrYQQLb7jRYmwxAwqcfR/lB04DzW8VdlfSAOvilTuOmtlY2J0wqocSconN3W4ZW62XLy2TLddfBLcbHUsBO4AqWS+8LFZWMA+k7TQaKr65jCG2kdfUlo0A7VheXGeduicdv8AGQAWkkFTa9x439i1r655JEcsAB0GZpJBVHVtRTtvUVtKARcNEZuVl+XxtJ6fNtLE72+5SbnAsxtu0ha+HGIHvEQcC8i9hpfuuskVjnAhkfsJVcvWcci+Pps6uuDiDmNu5REYIuSfaodYcAS5rR3G6oal28NBB00VPzsIn8TNm0zIGm8uvYsqd9GYgBEByI3rTvrOhF5g1jeBcQPirQxWkc/K2obc8BqLqv5mN8k9NlPDYtMbb2FgdLWurL4mkFzMup4q2HOkbna4Obz4KIMxdcNaWg6Ac1TL/wAhJ8NMfRW/1Lq5Iu5zWjmnVmAEkh3I3Vl8c0hJMQIB4OVrK0OIkc5tvRN7Kn/yGVafhYz+rroADckdwVt0IAuSAOZVt88cZsDI6/GxVt0oLw7oi8W0DjbVWn/kclfwsVx7Y2alw8VjyStBs1hdfQGyk98lrdEwX3EAmysGZzSQ9gdbtAVMvXcmS+PpMMfkknl3MhFuJXQfJISdnK4m1/nCTd/cYucNS1wIa1xIBNibf/tdF8kf5NVhta9e/wDZYnFy58n+leTjxwnh3KIi2YiIiAiIgIiICIiAiIgIiICIiAiIgIiICIiAqKqog1G1lvwUxO/qz/gV5lhsTpNgC2EEvGckAXLhfgvTdq/yVxPn1Z/wK4LY14Zs7AC3NcuuCLjep3qI1tucComV+xNHTtBGXXTQg34+1cltK11JtdDCWdJnis5o427V2OHYtT4V0rKsGGG+drmi4A5LzbajHZMQ2qkxCjaQGHLGS06i++yjjz1ltOU3NNz/ACUk5sOmFt5BOioDhwPn09VGLWvY2CxqzF2RQQOjnlmqS0F4Y3zQe0rBZtHjjSckBczgDHe/uXV7+LD2sm6Awc756iPvaVJseEu1ZiThbm1ahm2FczSow6J9t947fuWVDtXhM4DcQwvoyf6zBa3ar482P2rePJnGGkazPHiLHka2IsSuaeBPtXTNebhz2A9uq3rq7ZmUeZK5l9dRf2LnsUqaSDHYZ6GTPHG5pBHYbqOXKZYfJxSzLy9hx2m6XDWxRWjLWgNJFhe26643aymMmyzHytLZI/Ndccl3uH1EGJYbDJIQ+KVrS0g7iBz46rmvlPfBT4C2NpaHPO4b7dq4ZXV8uHwLEpZaWODpCMhsXE7hwW4mnbGwl0sctwRYEXXL7OVdJTOm67HmaRoL2ueSyarG6ElzYKINtuJdddsytk8ubrJb4WcTn6qyN0Fe+WV5JkjI0ZysVXD5a2aVhc5roTq93IDf7bLClxJjyXCnYDztcq184y5S1pDW8hxUS6vy0mM18N1WVrWdLJACY22AFtSePsVvHYTJRUtZTZ2iRtntBOhWm6/MDoQBytdQdVzPBBkcQeF9B3BVzztvytjjIGCUmx3b7uKmyCNjw6SUaEGzdVYzknzrk99lUPI3A+F1ntZ0DcfkiwiTDoIwIpQ4Oc462JXomxzx+C9E3fZliOWq8da8ki448Vn0WJV1DbqtVLHbgHXHgtOOyXbHlwuc09rzNJtcKhsTe4XmdDt1icJDalkdS0c9CPbzW9ptvsOkYDPBNE8bwNQSuqcmNcOXDnHXX0+iVYrZur0c8zQC6JhcAdxsOPYtANuMJIGk2u/zQqYvtFhtZhFRFHUEyPacotbW+5W7RWcee/MYlDtjWVFdBA6ngaySQNJF7gE2uuxDswu0g7tQbheQPIDCQbWvYg80jrqqK7WVEoGhAa8qvZtlxb+Hr9juAF1ZdO90ro6dmfKQCSbNB/f3LzGjxOuMjHCqmzA3AMhO7sXfbJ1ElZgMVRKS57nOzE8TeymZbY58dwm2TA/FjWkTx0zaYbi1xLj7FnXuqWQAjeryMt7VRVsqAaqRWyWVUVQRFUb1IoqhVtfcpNiJ4quxrsb/AKFrL/8ABd8CuUoJqGPDcMbNE51QYmlrmgOuLnSxN/auwxuIjA60kgAQuN/YVptnqd7NnsPqqWNjpnwhr3OAJaNdQOa8/wBblOr0/QzVXIXNmrmVFVQtpZgA0TTuBuBxaAdNFk1LY5GObTV0TTvzPsQTyAG5aeswymlq+kqqp0kxubOfuPIALEkwOnlJbS1RY46m7jYLx5jjXryVm9Fj0cpEYhmaTcOY8C47irkZxFjia+OMRkaZB51+9aV+GYtSC9PVOkaOTv3Kx+EGI0D8lTd5H9Vw1K067ninbXy34qZzJaOhblDgRJM+9gDqMo1UKt88tQagV9TE5wAs0CwtyHJaiTap7MjpqRpaRyNwsyDHaeQgyQGLMN5N/ckmc+DeOXyuXxRv0MWlIJ/rRi5HJXWPx8aQ1sLy7Roc0Xv7dFV2J0hYTC10pAJIBGg7lF2IisiDMOkMVQ1wc1rhYEg7j3q05M58xW8eP8YuM49tBglRDDPSNHStFpHNyhx4gEaXWkxnaHFm1IM8kzYZDma124DkLLocQbi+NVEJxkxsghcHtjYLkkdvsVnFMJpMRe01JfdjcrQ3QDtW/vYyxlOG6202E0TsdrIi4VEjnyAHIeA138O9dfjOGRUszq3oahrWhoyTaEZRa47FqNmITgu0NPAS400zrNcTbKSbAE8LrabUYs7GsSfRUhcKZgyyTbhbcQDuJ3q9zl8qTHLenJYrtvisj3QUc7oYwcoI3kbrXWyo9tsZosKDLgyu1aXjM23cePfosV2ztBA9zhG+YO9I6jmVlup4ZYui6pZoblHM6Kt5cb8NMeK35bjDZdqa7DZMQq5ojCAXWhADgLX3Bak7Sh5AfiMwsS0gtJNx2KxhpxTDmS09PXOjppTq12pA5BWRgkJe5/SXc45iXC+vFRc4Y8dl8r9RUx1ZFsZqWg65XNFvjoseXDujcHRzukIsQ8n+Kusw2JhuSSd1yLBZLYWtAzPNiLWI0CyuVazDFhdA+pEUc9a+XJIJAxzi7W/HlZb3YvB6GvwAvqIg6TpnjMDbitcyOATsELmlxcBYDebrebAAjAHAuAInebX7V2emyu9uL1WEkZMuyVK4HoJ3x3G4i4WM7ZmrgaRA+OXv0JXTtJ4EH2qQzdnsK9CcuUebcMa41+G4hTm4gka4a3YSseTHcXoj0by6Ro0tI3XxXeguAOnjYrU4uI+icXxNOh1IA4LTDk7XzGeWGp4rlaXFRUzF0zC1ztTbcFs4ZopHtcHNc5pFuBC1LIoXPLi3KQSRYqYhbclkhaeAuuvUsYV2EdQ10dw4AgXOqUlQ2eMuYTYE3uNbrloZ6qISEPY4NGgvqVu4q0w0Eck8BjJ3lu5cmfFr4a48lny2uftCqHFayKuEjBJE0uaTax3rJZVXZYx6k89yxvHWk5Iy8yZhzN1iifT6JVBOA8624aqOlPcjKz6lcvtQ7zhY63W565GyYxyyBpOoJIC5/aSRr3tAeCe/et+DHrkpyZdolgbrQuuSdOS1mM5jIcrGnX+sVcw2tZTRuz68rFYOJSid3nMeQTcEXXVfFZY43bOw01JaMsVOe+yz3dct/MUx8FzsUkEbAD0gI5Eqjql7nWa6QN4alRtNxu27mNeGOIpaYixubhafZhsr6KdrQQ3pnXINgDYXCxZpZgCelkGnMrL2TqHR4fK1ozDpnG/M2C8v19/V6PosfLbxQ5w4AyFw3i+5ZDIJGNyszkkXJKrDJIXB0bSXX1sN6yWTzGQXjJA3hw1B7Oa8HLPy9eSMJscocAHWF9SRdX5MJZUASysEj27rmwAWVM0VAMbZA2RouA23vSla6N4MjjISbFo1I9gSXK/CbcZ8rcNDA0BzhHHl5HXuWUGwBzWxwOdcgF1zZVma0OBcyNjd4LzqfYrTqtjNGufIBuGgaDzCtODPP5UvPjj8KVNPVvJMLmU7QdABmJ9isPZWxw3bVMYQdSW6ntsqyVsjtGmwOmixnSFxOYk+1dfH6eSfs58+fK/CzJhrq2W81UHvPMHXuCtHBHBrhHJGCNLkEELZ4cM1dEOZKrOck8jeRVpjj26q98tbYENNjNJGGwujmYN4abk8tFcjxephGXEIHsI3Bo0sr+YixBI7RcKfWZALPDZG8nAfFVz9PKY82UWnY5AW2DHNvuvpcq3T4u18pLow0Dgd5U5KbD6lxL2uhfzGoB5rHfgDXgvp5i7tabn2jes/Y00nPa2UGIxysIDWk89FZmq4DrIbE6AAjVa+np56OWxcCwggtcLE+Kw6hlf03SNp8rL2GtyfYsvb1fLWcvhuWywP3Ei26+5Y8k1DGXBxB4m5WpLKsSXkika08bEArDqo57lzY3nhuO5TjhFby1vjiFDlu2NtxuIXRfJFrs1WHnXyacvNYvLf5UCQGSb9BlOq9R+R652Vqid5rn/sMXXxYzGMs8+0d2iItWYiIgIiICIiAiIgIiICIiAiIgIiICIiAiIgKiqqcEGp2r12WxIf+Xf8CuF2LjL9nICHNBzEWJAJ1XabYvczZPESyN8jjA5oa0EnUWvovKMHxmtw/DmUow5z8pJuS4b/AGKLPBPl3j6KWRuV0UcjeVwVYOGsYSTQMHMht1y7dqcRafNw9zbcMzj+5XmbZYuz6NC725j+5Z9al0AggZvp2t72BSYIho2OPuyhaIbcYpbz8Jjf/eDvsUX7YVEg8/AIz2guH7lPWjfup6Z2hp4zff5oVl+GYfIbPpIjfQ+aAufftPVE3ZhBZ/1OP7lAbT4gD/R1+8u+xR1o3EuzGDS3zUjASeFwsOfYnCZPoB7O47li/hTiH5s97vsQbVYhf+jPe77FOsvs8NvQDEdnYOgpY3YhQ7wxxs5h7Fym1M+N45U+fQTMjb9FobcD2rbjazEBuwz3u+xVO12I8cMv3l32JJkbjim4Fix0FDKO9qut2cxdw0oZL9oC6/8AC3ET/uweLvsVPwsxHcMM+P2K28jw5VuyeNOI/khbfmQFV2yWNNdbqpPaDcLqfwrxD82/tfYqfhVX/mv3u+xN5DlvwTxon/ZHeKuN2Pxp2+mt3uXTfhViH5sP/wBvsUDtRiB/3afF32JvI00TNiMXdvEbe8q8zYTEP688TfbdbU7S4hww4+LvsQbS4gRrhpv3u+xRvJOo1dZsc+hw+arkq2uMTS4NA32F1zzSCLXHdddbXY3XVlDNTOw8tErcpIzG19L7lzRwmoLrlkgvyYfsWmGVnyrZv4WLaaEX4ICRv1WQMLqhuEo/6D9imMOqgLFkhP8AcP2LXvFerFDhe1yFdbNI3cQQN11dGHTnfFJ35D9ir83VHCKT9U/YrTORFxWGynpLve4jiBuV5srDI4hwAI0vogw6oF7xSH/oP2IcOqCLGKTX+wfsUzkiOjIp3Bri4EHK0m4XomxILdmKYkfSLj715qyiqmnzY5QLW+ifsXR4HtFieF0rKV9CJ4GXsA0tdc9pCthzYy+WPJxXLHUeitaDzUhGT9HVceNtqgf7ll+sP2Kbdup27sFl+s/gr3mxc89Pm67on2/ggjcOHuXKDb+oAt8xyn/3D9ifh/UW/oOX9f8Ago9+J/GydeyM8R7lV0Ave1lyA+UCoA/oOX6z+Codv6gj+g5frP4KvvRP4+TrxEL2JVehauOO309v6Dk+s/gqfh7UfmSX6z+Cn3sftHsZOy6IDcbqu5cYdvKg7sFlH/ufwUfw6qCRfBZfrD9ie7j9ns5Omx9xGA1osf5hw9xWo2drG0Wz2GOmsIXRC7juBubErU122NRWUM1P80SN6WMtvmJtcEXtbtVvC9oo6bBKfD6nDKqToow0kNFjvPFcfqtcmOo7fSy8fy6yowehrXdYDW53C7XtuQe1a+nweWmlc58kclybOLQCBystHR7Rmheeq09cInHWF7AWju4graHbiLLY4TWO01IAFyvP9rOeHf7uLObSODvp8dA23wKx6qhog8yVtIDYXzktF7cO9Yo2ypwb/NNaHXuCANFan2ro6hgbNhFa+xuCbXScWcT7uNWeioqqfJ1Fw1GUlpItfnuUcR2ap5v9nmcwmxNxexUztPTnQYfXgDcABp7UdtLTuGmHV1xxsFf2858I9zFrqXZqenmzGtAHCwN1uoII6XVkYdIBq8jUrDO0VOR/R9d+qFA47Skm+H147mhRlx51M5MI2T3vcfOIN9ytBhLiXad6w247StJtQVxHaAhx6lO+grf1Qq+zmt72LNAF7AXtuuPgVbc0gCzQAb3AGvesQY5S7+o136jUOOUp/wC4136jVaceaPdxX8pJsQ727laeHg3a3UbrK3880pN+pV36jVRuNU7QbUNYSTrmjBUziyPdxHxufo4G532GiZXMHEdllUY1T31w+q+pb9qo/Gad3+76oAf+C37Vf26j3opneSA0uHeLgqhfc2dGH66nUWVWYxTgNvh9Sed4h9qDGKW39GVI37oh9qn2qic0TgY0VELi2w6RpsBfiFyTKqrhklbBVSRMD3Wa0kDeV1HzxTt1bQVYcNQTGLA8OK5c0dRmcRDIbku+ieJ7l08E6Xy5ufLv8L7MRxEb6+b9ZZEeK1trdenv3rBbSVA3wSH/AKT9imKaoGvQSfqn7F2TPBx3jybRmIYs9v4uvl9pQ0+MVI8+vcQeBKwojVR6Cnk/VP2LKiratgsaaTTk0q05OP7U9vP6ZVPgOIPNnVzWg+26v/g5iIPm1+narMOLSsH4ykqz/dAAV047KBaPD6jTi5tytJy4fbO8fJ9IVmHT0cYz1LnuPolRZX1GUMfPJkA1aVGXF6ubR1LLY6WLAsfrbiSX0Mx/6QtZzcf9qvs5/TOhxV7IejEkgeDoQNLKb8dqA3K2S5G++iw21rWxFow6bMd5LRuVh04cbignB/uhT73F9o9jNnOxyqeRmqDC4HQcD7Udi1QQHPnLnAjQGwIWumcXgBtHOOd2nd4KyGy2ymlmtwIaVS8+EXnBl9M+evlqDeRxcBqCTqFE1RIGdwcRxO8Ba8tqNwgm/VKBlQDrTy27Gn7FW+ox/i04MvpnGQEWa5oG83U21LmxFnSMvwJC13Rzkm0Ew/6SomKqO6KX9U/Yq/kRb2Kzy4vBzOab8dArT2uBu1wNuRWL0VWBpFJ+qVHoq3/hS/qlT+Vir7GTKfIQ0g2uRZbDY+MPw+R5kAHTO047hqtMI6zjE8jiMh+xbTZ+tbhNJJFUYVLVvLy4EuLWDQaFobc7u5cfqMseWadXBMuN1dNMz+bjjfKWkWLBcnwWXIJMuaYR0zDbV7hmPs3rm5Nq65zckWHyQR7g2EBpHtIWG7GJXOzPw+oc47yXEk//AFsuLH0+Eu66Ly5V00lRRNddpfUPHE+a32K06ukc3KwMjbyaNfFc8MYkH+7p/wBY/dVfniT83Tj/AKj91bY444/DK3Kty6Uk3c4u7yomQnctR88S/m6f9Y/dVPneT83T/rf/APKvuI61t8xAuFVpuDfVaf53kv8A0dN4j7FMYzIN2HT/AKx+6o2nrXSYMM2JRd5N1TEWhtdM2/G60lBtLJR1InGFTPsLWLiP/wAUq9pZampdL80zNzbxmP3Vy9cve3/Gn/002WexsT3KJcDpdac43If92TfrH7qfPchH9G1H6x+6urbPq2pNlEPLTdri22twbLV/PMhP9HT/AKx+6hxeQ/7un/WP3U3Dq3keIyAZZQyZu6zhrbvVwTUUwsHSUzuF/Obf9y5w4rKTph04/wCo/dT50l/N8/6xP/4qLMb8k3HUdDUtZmY1lTGNbxkE27gsZ0kTnlry+I8i0G3sWhZi88brx0NTGQb3a7+Cy27TVDmdHV4Ualm4B7bO8QN6yvFj/GkyrYOpBJ5zJGkDW9hr3hbz5JLjZutBN7YhJwt/VYuKnxYF16XDKqEbyDISAewWXbfJPFJHs1VdI1zXPrXus7fqxinDDrC5bduiItFRERAREQEREBERAREQEREBERAREQEREBERAVFVUQa3aP8AJ6v/AMB3wK8lsOBN161tH+TuIf4DvgV4zLWtjn6JsTnPAuSCoqYzAQDre/NMwtxWEK15OtK/ROuv9VeqrM3N3pm71hddf6q9Ouv9Vegzc3embvWF11/qr066/wBVegzc3embvWF11/qr066/1V6DNzd6Zu9YXXX+qvTrr/VXoM3N3pm71hddf6q9Ouv9Vegzc3embvWF11/qr066/wBWegzbnmUueZWDJiBY276d4A4k2VW1znNu2mebqRm5u9M3esLrr/VXp11/qr1Azc3embvWF11/qr066/1V6DNzd6Zu9YXXX+qvTrr/AFV6DNzd6Zu9YXXX+qvTrr/VXoM3N3pm71hddf6q9Ouv9Vegzc3embvWF11/qr066/1V6DNueZVCdd5WH11/qr0Fa/1Z6DNueZTN3rXsxLM8sbA8kbwp9df6q9Bm5u9M3esLrr/VXp11/qr0Gbm70zd6wuuv9VenXX+qvQZubvTN3rC66/1V6ddf6q9Bm5u9M3esLrr/AFV6ddf6q9Bm5u9LnmVhddf6q9Ouv9Vegzc3eqX71h9dd6s9DWSW/wBmegzb301VAbaa+Kw+uPtfqzzfkovxExi7qdwHAkoM/N3pc8ysIVzyL9Xeboax9v8AZXoM3N3ql+9YfXXaWpXqvXXW/wBmegy7hMxWH11/qr066/1V6DMzFVzd6wuuv9VenXX+qvUaGbc8ylzzKwuuv9VenXX+qvTQzc3embvWF11/qr066/1V6kZubvTN3rC66/1V6ddf6q9Bm5u9Mx5lYXXXWP8AJnhRZiJeSG07yRvtqpGfc8ylzzKwuuv9VenXX+qvUDNueZS55lYXXX+qvTrr/VXoMy4Vc3esLrr/AFV6ddf6q9BmXHalx2rD66/1V6ddf6q9EaZl/wDN0ubbysPrr/VXp11/qr0SzQ6w1umbvWF11/qr066/1V6DMuEzacVh9df6q9OuvA0pX3UojMB0OpTN3rBfiOUgOgeLmwvopddfa/VX2RLMDjcoHanesPrr/VXp11/qr0Gbm70zd6wuuv8AVXp11/qr1Azc3embvWF11/qr066/1V6DNzd6Zu9YXXX+qvTrr/VXoM3N3pm71hddf6q9Ouv9Vegzc3embvWF11/qr066/wBVegzPFVBHI+Kwuuv9VeqdecASaZ4QZodqd6rc8ysCPETISGU7zbfbVS66/wBVeo0M255lLnmVhddf6q9Ouv8AVXqRm3PMqlwsPrr/AFV6ddf6q9RoZubvXofydG+AzfpLv2Wry/rryCOqvXpfyZyGXZ6dxjcz+VOFj/cYrRFdeiIrKiIiAiIgIiICIiAiIgIiICIiAiIgIiICIiAqKqpwQazaT8nMQ/wHfArxRhBxh+l7N4r2vaT8nK//AAH/AAK8UYf9Lv8A7qhMZ2Yk6bvYq37T7lAHQpdQsnftPuVPaVC6rdQJe0p7So3S6CXtKe0qN0ugl7SntKjdLoJe0p7So3S+iCd+0+5L9p9yt3KAoLOIkikcLnU71dpXHqzBc3t2LHxI/wAkd3hXqY/ydncpF657fcntKjdLqBL2lPaVG6XQS9pT2lRul0EvaU9pUbpdBL2lPaVG6XQS9pS57fco3S6CVzzPuVb+dcXsBqDZQuq3QYNGSMRmJvYrP9pWvpD/AC+ZZ11Il7SntKjdLqBL2lPaVG6XQS9pT2lRul0EvaU9pUbpdBL2lNeajdLoJ6/5sgJvrf3KF1W6kVuQQQT7lh4q7+TtIJBzDdx1WUDo1YeKH8Qz+8PigzWOPRMB0GUHgq3JNjwUR/NM/uhVvqfYgr7SntKjdLqBL2lPaVG6XQS9pT2lRul0EvaU9pUbpdBL2lPaVG6XQS9pVdeahdLoJXNid+nYsHDSRLPqSSTysFmX0PcsPDT58394qRnAm1tQntKpcql1Al7SntKjdLoJe0p7So3S6CXtKe0qN0ugl7SntKjdLoJe0pc9vuUbpdBL2lL9qjc2KpdBiYmSZoBra413cVnAkAC+lhyWDiBvLD3j4rMO4dwUiXtKe0qN0uoEvaU9pUbpdBL2lPaVG6XQS9pT2lRul0EvaU9pUbpdBL2lVv2n3KF9EuglfXed/YqOuGOvqLHkqA6qjj5ju4qRiYUT+N1N8x10WfmJ0ufctfhe6b+8s7cgr7SntKjdLqBL2lPaVG6XQTJ04lei/Jwb7PzaW/lLv2Wrze69H+Tf8n5/0l37LVMVrrERFZAiIgIiICIiAiIgIiICIiAiIgIiICIiAiIgKiqqINZtJ+TmIf4DvgvE2aYo89i9s2l/JzEP8B3wK8RjIOJyXI3KKmM2+9LqnNLqqytyl1G6XQSul1G6XQSul1G6XQSul1G6XQSul1G6Xsgle+iqLWtc35KtPCaiYRNNieK3sWzkb25OnIkIHdqqZckxpI5fECDSnXiFeg/2dgGuihjcLqYSU7yC5rrAjiFkYdTmq6OJpINhchW7ax2jSN+A3pddANmY5IXmKoIkaL2PErnC4tmkicPOjdlJ5quGcyLNJ3S6pcql1dKV0uo3S6CV0uo3S6CV1W6hdLoJXQHQqN1Rx5EaoLh0VAddVt8OwNlRAJZ5i0O3AC6s4zhJwwtcJA9rtQTvsqY8mNujrfloqM/y2Y9qzCdQb2F+K19M+1XLbXMQB7V1VFgDZImOqJS1zxcAclOWcxJN+Wmud6pdZmLYa7DpsuYSMIuDfcsG9xceCSyzYldLqN0urCV0uo3S6CV0uo3S6CV0uo3S6CV1W6gTpvV2mhkqJxFGRc+1Rb1mzFEHRpO48VhYlYwMsSTm/eupZs06RnmTgvAuQdy5nGIzARE8jM11tO9VwzmVTfDIabxgdgspX1PsVaCndWzNp4yLgAk8hxW6ds258TnxVALmi+U6blGXJjLo00h3XVLqhDmPe1xs5psVS60/m0JXS6jdLoJXS6jdLoJXS6jdLoJXS6jdLoJXVb623KF+S3dFgLJYBJUzFoeLiyplnMfkktae9geOm9YWHHz5r+ktzi+GnDZQ0OEjXC4JO4LR4afPkFxd7rC5430VplLNmmfcDiUut5S7PRyRtM8xa9wuLarW4pROw6p6Jzw8HVpG9UmeNuiyxi3S5UbpdaCV0uo3S6CV0uo3S6CV0uo3S6CV0J0UbpdBK4sRcoCLb1k4dQvrnHIcoG88lsKnZ18dM+eGcPyjUKl5MZ4NVzVefxsPePis2+7uCwa8npogbeabFbjCsOkxEGTMGMabX9m9Tc5jN1GPm6YmYJdbbEsCfTUZqIZQ9rR51+C0wOmqY5TL4L48J3S6jdLqyUrpdRul0ErpdRul0ErpdRul0Er6JdRulxYnQ27UEgTf2qjj5ju4ra0GCSVETZZJAxjtys4zhUmHNuXBzHA2IVMc8d6NVpcLPmy/3t6zLgaEklYOGXBMYtdzrC/MldXT7ORyMYJ5i17xcW3d11OWcxT1rRA2GqXWRidG7DqroXODgdxBWLdMb2QldLql1S6sJE6Fek/Jt+T8/wClO/ZavNLr0r5Nfyfn/SnfsMUxWutREVkCIiAiIgIiICIiAiIgIiICIiAiIgIiICIiAqKqog1m0v5N4j+ju+BXh7P6Seexe4bS/k3iP6O74FeHRn+XydyhMZpKpdUcdfYqXULJJdRul1AldLqN+1L9qCV0uo37Uv2oJXS6jftS/agldAblRv2pftQTjkdE4SRmzgtiMerQ0taWhwAs6y1RcQbBVuq5YS+SVbxOR0kL3yOzvcbkngr1FPJA2OSJ2VwA1WLXk9Ae8K9CbQM7grWTrpH9bWTHK10Lo2ljCRbMN5Wta2znPcbucbkniqZu1UzFVxxmPwm3a4TbcqXvvUb9qX7VYSS6jftS/agldLqN+1LoJIo3S6CV0JsDbfwUbpdBn0mLVdJEI2kO10vwVqtrqiteHTvBA3NWNdUHAngqTCS7LbZpiUrWvqZgbix0I4LeUuL1lLEIw4SAbid4HJaKkP8AKZu9ZeYqcsZkiXTIqquerl6SZ176AcgrTjqLKN0v2qZNeEpXS6jftS/apErpdRv2pftQSul1G/al+1BK6XUb9qXQV1Bve9ldhmkhm6SKwIVm6pmIOij5RPDcfhBV9HlaA1wFi4LQ4nJJJZ8jgXF1yfasgHQk8QsSv1azvCjHCY3cTbtnUk0lNMJ4XWcGi45rZu2gq3RFtmtuLEhagGzW25BC43TpLd1PbxpIuLiXO1cTclL8/co3S6t8eEJXS6jftS/agldLqN+1L9qCV0uo37Uv2oJXRRv2pdBLeN9lnU2M1lMwRsIe0aDMNwWvul+1UyxmU1Uy6ZFXWT1cpkqXZiBoBuC1tCCRJqA7NcHkslzvNPcsbDzcS39JWmOppXbd0+M1sMQjzBwboCd6xKiolqpjLO4l3DsVokAaKl1WYSXa20rlLqGYqt+1W2hK6XUb9qX7VIldLqN+1L9qCV0uo3S6CV0vwKjdUvqiKyqKslo3l0R0PArKqccq6iEx2axpBvbS61l1Qk6ql45vabfDHrQTLCCd5ue3VbTD66fD3EQ2LCBcFamsN54e8fFZbnW3cgpyks0iXTZVuMVVXCIXkNYN4HFa9RDtEv2pjjMZ4L58pXS6jftS/arJSul1G/al+1BK6XUb9qX7UErpdRv2pdBJFG6pfRBs6LGKikh6MgPbwB4K1iOIz1zSZTZrQbALCB3KjzaJ/cVWYTezdY+HgmFxuA4ONiOC3cGNVscbY8wdlFg477LR4efxUn95Zd7KMsZl8ktXJ55aiYyTOLnHdfgoXUb9qXU4/qipXS6jdLqyUrr0v5NPyen/AEp37DF5lmXpnyYm+zs/6U79hinFWuvREVkCIiAiIgIiICIiAiIgIiICIiAiIgIiICIiAqKqpwQavaX8mcQ/wH/Arw2I/wAukXuW035M4j+jv+C8Mjc1ta8uIAPElQmMu+iXUA9tyczSO8Jnb6TfFQsndLqGdvpN8Uzs9JviFAndLqGdnpN8QmdnpN8Qo0J3S6hnZ6TfEJnZ6TfEKRO6XUM7PSb4hM7PSb4hBO6XUM7PSb4hM7PSb4hBO6AqGdnpN8QmdvpN8UFquN4TbmFfiI6FvcFjVjmuhAa4E34FXYnsETQXNOnMKRdul1DO30m+KZ2+k3xVdCd0uoZ2+k3xTO30m+KkTul1DO30m+KZ2+k3xUaE7pdQzt9JvimdvpN8U0J3S6hnb6TfFM7fSb4poTul1DO30m+KZ2+k3xTQndAdVAPb6TfFC9tj5zd2mqkWKT/aJu9ZV1iUpDZpCXDU8SsjO30m+KkTul1DO30h4pnb6Q8VAndLqGdvpDxTO30m+KjQndLqGdvpN8Uzs9JviFIndLqGdnpN8QmdnpN8QgndLqGdnpN8QmdvpN8UE7oCoZ2+k3xTO230h4oLhOhWLXHzWd4V/O02u4eKxq1wdlDSDYjcVIzBoBfkFQkc1DpG5WkuG4DemdvpN8UE7pdQzt9JvimdvpN8UE7pdQzt9JvimdvpN8VAndLqGdvpN8Uzt9JvigndLqGdvpN8Uzt9JvigndLqGdvpN8Uzs9JviEE7pdQzs9JviEzs9JviEEidD3LHoCMsuv8AWV4vaGu85u48Vj0Za0SBzgLm4ubXUjLul1DOz0m+ITO30m+KgTul1DO30m+KZ2+k3xUaE7pdQzt9JvimdvpN8U0J3S6hnb6TfFM7fSb4poTul1DO30m+KZ2+k3xTQndLqGdvpN8Uzt9JvimhO6pdRzt9Jvimdo3ub4qRYqj+Pi7x8VlEjnwCw6lwdNGQRoeayc7bHzm7hxCkTul1DO30m+KZ2+k3xUCd0uoZ2+k3xTO30m+KjQndLqGdvpN8Uzt9JvimhO6XUM7fSb4pnb6TfFNCd0uoZ2+k3xTO30m+KaE7pdQzt9JvimdvpN8VIlfRJD5j+5Rztt9IeKo97cjrObu5hSLOHG0T/wC8som5WJRFrWPDnAXN9TZZAe230m+IUCd0uoZ2+k3xTO30h4qNCd0uoZ2+k3xTO30m+KkTuvTvkx/J2o/SnfsMXl2dtvpN8V6b8mD2HZ+oYHAkVRJAPAsYAfcVMVrs0RFZAiIgIiICIiAiIgIiICIiAiIgIiICIiAiIgKh3FVVOCDR7Y1cdNszW9IbGSN0bRzJ0C8aMLHOLnRgk8dy77bzEjU1woGG7IQC62oJO7wXIuhBOgAVLRrehjB/mx706KL0B4rOMHYFAwnko2nbE6KL0B4qvRxegPesgwnsUehNtybNrPRw+gE6OH0ArvRO5e5OjdyTZta6OL0B706OH0AruR3JOjPJRs2tdFF6HxTo4fQCu9GbbiqCN3JNm1voov8Ahj3p0UXofFXejcnRnkU7G1ro4fQCp0UXojxV3ozyKZHck2bWejiO9gPsKqIohuaFdyHkfBMh4A+CbNrXRRegPFOii9AeKuZXckyu5J2NrfRRegPFOii9AeKuZXckseSbNrfRRegPFOii9AeKuWPJVynkU7G1roovQHinRRegPFXcp5FUynknY2t9FF6A8U6KK30B4q7Y8kym25OxtZ6KP0B70EcfoD3q5lPJMp5J2NodHHb6AVOjj0GQaK5lPJMp5Js2t9HFrZgvxQRx+gPermXsSybNodHH6A8U6OL0B4qdtFTKmzaPRxegPFOjit/Nj3qQaq2U7NrfRx+h8VXo4/QHip27Eyps2h0cfoDxTo4/QHip5UsFGzaHRx+gPFU6KP0B71OwVbKdm1sRx+gPeq9HHb6AU7aKijZtARx+gPenRRE6xjvU0sE2bU6OMi2UaKPRx+h8VNE2bQEcfoD3qXRxf8MKtglgp2bR6KL0B4p0UXoDxUrIm07R6KL0B4p0UXoDxUkso2bR6KL0B4p0UXoDxUkTZtHoovQHiq9HF6A96rZLKdm0THFb6A96oIovQHippdNpRMUVvoDxQRxjTIFJUINtyjaNqdHH6A8U6KL0B4qQ4op2hHo4rfRHiqdHF6HvU7DmlhzTYh0cXoe9Oji9D3qdglk2IdHF6HvTo4vQ96nZUsmxHo4vQ96COL0B4qVksmxTo4vRHinRRegPFCNUseJTYdHF6I8U6KL0R4quUdqpl7U2HQxkatBsqCKL0R4quUc0yjmmw6OL0R4p0UXoDxVcvalhzTYp0cXojxToovQHilhwJSx5ptY6OL0R4p0UXoDxTKeaZe1NqnRRegPFOji9EeKZe1VykJsU6OL0R4p0cXojxSyJsOji9EeKdFF6I8USybWOjj9EeKZIyfoi1kRNgI4gLZRqq9HERbIFQb1JNiPRRegPFOjit9EeKkqWTaqPRxeh706OL0PepWSybEeji9Ae9d98ldTFFNW0hNnyBjmC2hDbg28QuEtqtzs/Vuw6ogqo73a7zrcRfUeCmUe0orFNOyop45mEFrwCLK+roEREBERAREQEREBERAREQEREBERAREQEREFFiYnVtosPmqHf1GkgDibGw8VlrkflErW0uG00by4NmlLTbs1QcVUyOnnkleCXPcXEnf2BWQ0k7ioddpiT57vBBWU19Xu8FQXDH2FU6ME7lQVtKDq5/gpiupBqXSH2IAp78AnVjbd7lcbilEARZ59ifOlFyf4KdC11U8k6sbble+dKLk/wVPnSi5P8FXQs9V7k6t2BXvnWktuf4KnznRHfn8E0LXVtNwVOrdg8Fe+c6L+34J850X9vwTQs9XPL3IKbs9yvfOdEfT8FX5yo+TvBNCwaY8lTq3Yr/wA5UX9vwT5yo7bn+CaFjqx5J1bTcr3zjR8n+CfOVFyf4JoWOrHknVuxX/nGj5O8E+caO253gmhjmm03BU6uOSyfnCktud4KnzjSf2vBNDH6uOSp1bsWT840n9rwT5xpLf1vBNGmN1bsTq3Ysn5wpOTvBOv0n9rwTRpjdW7E6tpuWT1+k/teCp1+k/teCaGP1Y8vcqdW7Asnr9J/a8ENdScneCaGN1bsTq3Ysjr9Jyd4J1+k5O8E0Mfq2m4J1fTcFf69ScneCdfpOTvBNDG6v2J1bsCyevUnJ3gqdepeTvBNDH6t2BOrdgWR16l5O8E69ScneCaGP1fsVDS68VlddpOTvBOvUvJ/gmkMXqvenVtNwWT16k5O8E67ScneCjSWL1a3BOr9iyjW0ttM3gqddpeTvBNDG6v2J1fsWT12l5O8E67S8neCaQxuqjkqGnPALJ67S/2vBOuUv9rwTQxernknVzyWV1yl/teCp1yk/teCaGN1c8k6uexZPXKT+14J1yl5O8E0li9X0VOrrL65S/2vBOuUvJ3gmhidXKdWNt6y+uUvJ3gnW6W253gmhh9XPJVFOeRWV1qm/teCdapuTvBNDF6ubcfBU6se1ZfWqfk7wQ1NPbe7wTQxOrmyp0B7Fl9Zp+bj7FXrFNyPgmhh9AVToDzWb1imtud4KnWKfk7wTQxOgPaqdAeazOsU/J3gnWKfk7wTQw+gPIqnQFZvWKfk7wTrFPyPgmhhdAVXoHdqy+sU/J3ghqKe/wDW8E0MToHdqp0Lll9Yp/7XgnWKe3HwTR5YnQuVehNlk9Yg5HwTrEHI+CaNVidCe1OjdyWX09P2+CdPT9vgmhidEbbvcqdEeRWZ09P/AGvBUM9PwzeCaGJ0TuSdG7kssTwX4+Cr09P2+CaGH0R5FOjdyWX09Pbj4KnT0/b4JoYvRu5KuR1tyyemg5nwTpYO3wTQxcjuSdGeRWSZoL8fBOmg7fBNDGyFMhssrpoe3wTpYbbj4JoYmQqmQ8ll9LD/AJCdJDzPgmjVYmQ8lXIVldJDzPgqZ4OZ8E0MXI7sVQx19yyg+DmfBVElP6RTQxejKoIzdZfSQekfBV6WDmfBNDF6MoIysrpIO3wVemg7fBNDF6Ep0JPArLE9ON4d4KoqKfk7wTQw+gI1WwpGgQNBBO+4VrrFPf8AreCuMq6YADM4HXQBTIPRNhsQM2HvpJHHPCdLneF1S8v2OxKIbR08UbnEzAggiwK9PCvBVERSCIiAiIgIiICIiAiIgIiICIiAiIgIiIKLT7RbPUuPxQx1UkjBC7M0sNtVuUQcWPk3wuxHWqnU+kE8m+F+s1P6y7RFGjbi/JvhXrFR4hPJvhXrNT4hdoiaHFeTbDL3FVUD2p5N8N9bqPELtUTRtxPk2w31uo8Qq+TfDvW6jxC7VE0bcV5N8O9bqPEJ5N8NP/e6jxC7VE0bcT5NsN9aqPEJ5NsN9aqPELtkTRtxPk2w31qo8Qq+TbDfW5/cu1RNG3FeTfDfWqjxCeTbDfWqjxC7VE0bcV5NsN9bn9yeTbDfW5/cu1RNG3FeTfDvW6jxCeTfDvW6jxC7VE0bcV5N8O9bqPEKnk2w71uo8Qu2RNG3E+TbDvW6jxCr5N8O9bqPELtUTRtxXk2w31uf3J5NsN9bn9y7VE0bcV5NsN9bn9yeTbDfW5/cu1RNG3FeTfDfW6jxCp5N8N9aqF2yJocT5N8N9aqE8m+G+tVC7ZE0OJ8m+G+tVCeTfDfWqhdsiaHE+TfDfWqhPJvhvrVQu2RNDifJthvrVR4qvk3w31qo8Qu1RNG3E+TbDfWZ/FPJthvrM/iu2RNDifJvhvrVQq+TbDfWp/cu1RNDivJvhvrdR4hPJvhvrdR4hdqiaHFeTfDfW6jxCeTfDfW6jxC7VE0OK8m+G+t1HiE8m+G+t1HiF2qJocT5N8N9aqE8m2G+t1HiF2yJocT5NsN9bqPEKvk3w31uo8Qu1RNG3FeTfDfW6jxCeTfDfW6jxC7VE0OK8m+G+t1HiE8m+G+t1HiF2qJocV5N8N9bqPEKnk3w31qoXaqqaHE+TbDfWZ/FPJvhvrM/iu2RNDivJvhvrdR4hU8m+G+sz+K7ZUTQ4ryb4b61UeKeTfDfWqjxXbImjbifJvhvrVR4p5N8N9Zn8V2yJo24nyb4b6zP4p5N8N9Zn8V2yJo24nyb4b6zP4p5N8N9aqPFdsiaNuJ8m+HetVCr5N8N9bqPELtUTRtxXk3w71uo8Qnk3w71uo8Qu1RNG3FeTfDvW6jxCeTfDvW6jxC7VE0bcV5N8O9bqPEJ5N8O9bqPELtUTRtxXk3w71uo8Qnk3w71uo8Qu1RNG3FeTfDvW6jxCeTfDvW6jxC7VE0bcV5N8O9bqPEJ5N8N9aqPcu1RNG3FeTfDfW6jxCeTfDvW6j3LtUTRtxXk3w71uo8Qnk3w71uo9y7VE0OK8m+Het1HiE8m+Het1HiF2qJocV5N8O9bqPEJ5N8N9bqPELtUTQ4ryb4b63UeIVPJth3rdR4hdsiaNuJ8m2Het1HiFXyb4b61Ue5dqiaNuJ8m+G+sz+KeTfDfWZ/FdsiaNuJ8m+G+sz+KeTfDfWZ/FdsiaNuJ8m+G+tVHiqj5NsLF/wCVVJ9oXaomjblcJ2HoMKxKKthnndJFfKHEWN11IVUUgiIgIiICIiAiIgIiICIiAiIgIiICIiAiIgIiICIiAiIgIiICIiAiIgIiICIiAiIgIiICIiAiIgIiICIiAiIgIiICIiAiIgIiICIiAiIgIiICIiAiIgIiICIiAiIgIiICIiAiIgIiICIiAiIgIiICIiAiIgIiICIiAiIgIiICIiAiIgIiICIiAiIgIiICIiAiIgIiICIiAiIgIiICIiAiIgIiICIiAiIgIiICIiAiIgIiICIiAiIgIiICIiAiIgIiICIiAiIgIiICIiAiIgIiICIiAiIgIiICIiAiIgIiICIiAiIgIiICIiAiIgIiICIiAiIgIiICIiAiIgIiICIiAiIgIiICIiAiIgIiICIiAiIgIiICIiAiIgIiICIiAiIgIiICIiAiIgIiICIiAiIgIiICIiAiIgIiICIiAiIgIiICIiAiIgIiICIiAiIgIiICIiAiIgIiICIiAiIgIiICIiAiIgIiICIiAiIgIiICIiAiIgIiICIiAiIgIiICIiAiIgIiICIiAiIgIiICIiAiIgIiICIiAiIgIiICIiAiIgIiICIiAiIgIiICIiAiIgIiICIiAiIgIiICIiAiIgIiICIiAiIgIiICIiAiIgIiICIiAiIgIiICIiAiIgIiICIiAiIgIiICIiAiIgIiICIiAiIgIiICIiAiIgIiICIiAiIgIiICIiAiIgIiICIiAiIgIiICIiAiIgIiICIiAiIgIiICIiAiIgIiICIiAiIgIiICIiAiIgIiICIiAiIgIiICIiAiIgIiICIiAiIgIiICIiAiIgIiICIiAiIgIiICIiAiIgIiICIiAiIgIiICIiAiIgIiICIiAiIgIiICIiAiIgIiICIiAiIgIiICIiAiIgIiICIiAiIgIiICIiAiIgIiICIiAiIgIiICIiAiIgIiICIiAiIgIiICIiAiIgIiICIiAiIgIiICIiAiIgIiICIiAiIgIiICIiAiIgIiICIiAiIgIiICIiAiIgIiICIiAiIgIiICIiAiIgIiICIiAiIgIiICIiAiIgIiICIiAiIgIiICIiAiIgIiICIiAiIgIiICIiAiIgIiICIiAiIgIiICIiAiIgIiICIiAiIgIiICIiAiIgIiICIiAiIgIiICIiAiIgIiICIiAiIgIiICIiAiIgIiICIiAiIgIiICIiAiIgIiICIiAiIgIiICIiAiIgIiICIiAiIgIiICIiAiIgIiICIiAiIgIiICIiAiIgIiICIiAiIgIiICIiAiIgIiICIiAiIgIiICIiAiIgIiICIiAiIgIiICIiAiIgIiICIiAiIgIiICIiAiIgIiICIiAiIgIiICIiAiIgIiICIiAiIgIiICIiAiIgIiICIiAiIgIiICIiAiIgIiICIiAiIgIiICIiAiIgIiICIiAiIgIiICIiAiIgIiICIiAiIgIiICIiAiIgIiICIiAiIgIiICIiAiIgIiICIiAiIgIiICIiAiIgIiICIiAiIgIiIP/9k=;" vertex="1" parent="1">
          <mxGeometry x="62.32" y="30" width="231.11" height="160" as="geometry" />
        </mxCell>
        <mxCell id="ihpu-LocPchT_FrUayzq-37" value="" style="line;strokeWidth=8;html=1;fillColor=#036897;gradientColor=none;fontColor=#000000;labelPosition=right;verticalLabelPosition=middle;align=left;verticalAlign=middle;strokeColor=#0000CC;" vertex="1" parent="1">
          <mxGeometry x="30" y="240" width="740" height="10" as="geometry" />
        </mxCell>
      </root>
    </mxGraphModel>
  </diagram>
</mxfile>
